<mxfile host="app.diagrams.net" modified="2023-07-12T14:09:55.794Z" agent="Mozilla/5.0 (Windows NT 10.0; Win64; x64) AppleWebKit/537.36 (KHTML, like Gecko) Chrome/114.0.0.0 Safari/537.36 Edg/114.0.1823.67" etag="ETpQ-40iRI2Nj_qu1KXo" version="21.6.1" type="device">
  <diagram name="Page-1" id="v1I4WAdUCyK2v9qU1_yc">
    <mxGraphModel dx="1149" dy="637" grid="1" gridSize="10" guides="1" tooltips="1" connect="1" arrows="1" fold="1" page="1" pageScale="1" pageWidth="850" pageHeight="1100" math="0" shadow="0">
      <root>
        <mxCell id="0" />
        <mxCell id="1" parent="0" />
        <mxCell id="sDR8SPUoZNO9pGjyw3lz-7" value="" style="edgeStyle=orthogonalEdgeStyle;rounded=0;orthogonalLoop=1;jettySize=auto;html=1;" edge="1" parent="1" source="poQPmo_kxg2JrNtwBbkQ-1" target="poQPmo_kxg2JrNtwBbkQ-38">
          <mxGeometry relative="1" as="geometry" />
        </mxCell>
        <mxCell id="poQPmo_kxg2JrNtwBbkQ-1" value="TPS62180" style="rounded=0;whiteSpace=wrap;html=1;fillColor=#d5e8d4;strokeColor=#82b366;" parent="1" vertex="1">
          <mxGeometry x="370" y="270" width="110" height="50" as="geometry" />
        </mxCell>
        <mxCell id="poQPmo_kxg2JrNtwBbkQ-7" value="" style="edgeStyle=orthogonalEdgeStyle;rounded=0;orthogonalLoop=1;jettySize=auto;html=1;" parent="1" target="poQPmo_kxg2JrNtwBbkQ-1" edge="1">
          <mxGeometry relative="1" as="geometry">
            <mxPoint x="340" y="295" as="sourcePoint" />
          </mxGeometry>
        </mxCell>
        <mxCell id="poQPmo_kxg2JrNtwBbkQ-10" value="5V@6A-85%" style="text;html=1;strokeColor=none;fillColor=none;align=center;verticalAlign=middle;whiteSpace=wrap;rounded=0;" parent="1" vertex="1">
          <mxGeometry x="366" y="250" width="118" height="20" as="geometry" />
        </mxCell>
        <mxCell id="sDR8SPUoZNO9pGjyw3lz-8" value="" style="edgeStyle=orthogonalEdgeStyle;rounded=0;orthogonalLoop=1;jettySize=auto;html=1;" edge="1" parent="1" source="poQPmo_kxg2JrNtwBbkQ-20" target="sDR8SPUoZNO9pGjyw3lz-2">
          <mxGeometry relative="1" as="geometry" />
        </mxCell>
        <mxCell id="poQPmo_kxg2JrNtwBbkQ-20" value="TPS62180" style="rounded=0;whiteSpace=wrap;html=1;fillColor=#d5e8d4;strokeColor=#82b366;" parent="1" vertex="1">
          <mxGeometry x="370" y="340" width="110" height="50" as="geometry" />
        </mxCell>
        <mxCell id="poQPmo_kxg2JrNtwBbkQ-21" value="" style="edgeStyle=orthogonalEdgeStyle;rounded=0;orthogonalLoop=1;jettySize=auto;html=1;" parent="1" target="poQPmo_kxg2JrNtwBbkQ-20" edge="1">
          <mxGeometry relative="1" as="geometry">
            <mxPoint x="340" y="365" as="sourcePoint" />
          </mxGeometry>
        </mxCell>
        <mxCell id="poQPmo_kxg2JrNtwBbkQ-23" value="3V3@6A-85%" style="text;html=1;strokeColor=none;fillColor=none;align=center;verticalAlign=middle;whiteSpace=wrap;rounded=0;" parent="1" vertex="1">
          <mxGeometry x="366" y="320" width="118" height="20" as="geometry" />
        </mxCell>
        <mxCell id="sDR8SPUoZNO9pGjyw3lz-9" value="" style="edgeStyle=orthogonalEdgeStyle;rounded=0;orthogonalLoop=1;jettySize=auto;html=1;" edge="1" parent="1" source="poQPmo_kxg2JrNtwBbkQ-24" target="sDR8SPUoZNO9pGjyw3lz-4">
          <mxGeometry relative="1" as="geometry" />
        </mxCell>
        <mxCell id="poQPmo_kxg2JrNtwBbkQ-24" value="TPS62180" style="rounded=0;whiteSpace=wrap;html=1;fillColor=#d5e8d4;strokeColor=#82b366;" parent="1" vertex="1">
          <mxGeometry x="370" y="410" width="110" height="50" as="geometry" />
        </mxCell>
        <mxCell id="poQPmo_kxg2JrNtwBbkQ-25" value="" style="edgeStyle=orthogonalEdgeStyle;rounded=0;orthogonalLoop=1;jettySize=auto;html=1;" parent="1" target="poQPmo_kxg2JrNtwBbkQ-24" edge="1">
          <mxGeometry relative="1" as="geometry">
            <mxPoint x="340" y="435" as="sourcePoint" />
          </mxGeometry>
        </mxCell>
        <mxCell id="poQPmo_kxg2JrNtwBbkQ-27" value="2V5@6A-85%" style="text;html=1;strokeColor=none;fillColor=none;align=center;verticalAlign=middle;whiteSpace=wrap;rounded=0;" parent="1" vertex="1">
          <mxGeometry x="366" y="390" width="118" height="20" as="geometry" />
        </mxCell>
        <mxCell id="sDR8SPUoZNO9pGjyw3lz-10" value="" style="edgeStyle=orthogonalEdgeStyle;rounded=0;orthogonalLoop=1;jettySize=auto;html=1;" edge="1" parent="1" source="poQPmo_kxg2JrNtwBbkQ-28" target="sDR8SPUoZNO9pGjyw3lz-6">
          <mxGeometry relative="1" as="geometry" />
        </mxCell>
        <mxCell id="poQPmo_kxg2JrNtwBbkQ-28" value="TPS62180" style="rounded=0;whiteSpace=wrap;html=1;fillColor=#d5e8d4;strokeColor=#82b366;" parent="1" vertex="1">
          <mxGeometry x="370" y="480" width="110" height="50" as="geometry" />
        </mxCell>
        <mxCell id="poQPmo_kxg2JrNtwBbkQ-29" value="" style="edgeStyle=orthogonalEdgeStyle;rounded=0;orthogonalLoop=1;jettySize=auto;html=1;" parent="1" target="poQPmo_kxg2JrNtwBbkQ-28" edge="1">
          <mxGeometry relative="1" as="geometry">
            <mxPoint x="340" y="505" as="sourcePoint" />
          </mxGeometry>
        </mxCell>
        <mxCell id="poQPmo_kxg2JrNtwBbkQ-31" value="1V2@6A-85%" style="text;html=1;strokeColor=none;fillColor=none;align=center;verticalAlign=middle;whiteSpace=wrap;rounded=0;" parent="1" vertex="1">
          <mxGeometry x="366" y="460" width="118" height="20" as="geometry" />
        </mxCell>
        <mxCell id="poQPmo_kxg2JrNtwBbkQ-37" value="" style="rounded=0;whiteSpace=wrap;html=1;fillColor=#dae8fc;strokeColor=#6c8ebf;" parent="1" vertex="1">
          <mxGeometry x="498" y="275" width="50" height="40" as="geometry" />
        </mxCell>
        <mxCell id="poQPmo_kxg2JrNtwBbkQ-38" value="" style="shape=image;verticalLabelPosition=bottom;labelBackgroundColor=default;verticalAlign=top;aspect=fixed;imageAspect=0;image=https://www.molex.com/content/dam/molex/molex-dot-com/products/manual/en-us/images/207/207419/2074190081_hires.jpg/_jcr_content/renditions/cq5dam.thumbnail.319.319.png;" parent="1" vertex="1">
          <mxGeometry x="499.98" y="277.75" width="46.05" height="34.5" as="geometry" />
        </mxCell>
        <mxCell id="poQPmo_kxg2JrNtwBbkQ-45" value="Summed Max Power 72W" style="text;html=1;strokeColor=none;fillColor=none;align=center;verticalAlign=middle;whiteSpace=wrap;rounded=0;" parent="1" vertex="1">
          <mxGeometry x="353" y="540" width="145" height="20" as="geometry" />
        </mxCell>
        <mxCell id="poQPmo_kxg2JrNtwBbkQ-50" value="10V@7.2A&lt;br&gt;12V@6A&lt;br&gt;&lt;br&gt;10V minimum&lt;br style=&quot;border-color: var(--border-color);&quot;&gt;15V maximum" style="text;html=1;strokeColor=none;fillColor=none;align=center;verticalAlign=middle;whiteSpace=wrap;rounded=0;" parent="1" vertex="1">
          <mxGeometry x="60" y="432.75" width="90" height="79" as="geometry" />
        </mxCell>
        <mxCell id="poQPmo_kxg2JrNtwBbkQ-51" value="" style="rounded=0;whiteSpace=wrap;html=1;fillColor=#dae8fc;strokeColor=#6c8ebf;" parent="1" vertex="1">
          <mxGeometry x="79.99000000000001" y="382.25" width="50" height="40" as="geometry" />
        </mxCell>
        <mxCell id="sDR8SPUoZNO9pGjyw3lz-23" value="" style="edgeStyle=orthogonalEdgeStyle;rounded=0;orthogonalLoop=1;jettySize=auto;html=1;" edge="1" parent="1" source="poQPmo_kxg2JrNtwBbkQ-52" target="sDR8SPUoZNO9pGjyw3lz-18">
          <mxGeometry relative="1" as="geometry" />
        </mxCell>
        <mxCell id="poQPmo_kxg2JrNtwBbkQ-52" value="" style="shape=image;verticalLabelPosition=bottom;labelBackgroundColor=default;verticalAlign=top;aspect=fixed;imageAspect=0;image=https://www.molex.com/content/dam/molex/molex-dot-com/products/manual/en-us/images/207/207419/2074190081_hires.jpg/_jcr_content/renditions/cq5dam.thumbnail.319.319.png;" parent="1" vertex="1">
          <mxGeometry x="81.97000000000003" y="385" width="46.05" height="34.5" as="geometry" />
        </mxCell>
        <mxCell id="sDR8SPUoZNO9pGjyw3lz-1" value="" style="rounded=0;whiteSpace=wrap;html=1;fillColor=#dae8fc;strokeColor=#6c8ebf;" vertex="1" parent="1">
          <mxGeometry x="498.01" y="345" width="50" height="40" as="geometry" />
        </mxCell>
        <mxCell id="sDR8SPUoZNO9pGjyw3lz-2" value="" style="shape=image;verticalLabelPosition=bottom;labelBackgroundColor=default;verticalAlign=top;aspect=fixed;imageAspect=0;image=https://www.molex.com/content/dam/molex/molex-dot-com/products/manual/en-us/images/207/207419/2074190081_hires.jpg/_jcr_content/renditions/cq5dam.thumbnail.319.319.png;" vertex="1" parent="1">
          <mxGeometry x="499.99" y="347.75" width="46.05" height="34.5" as="geometry" />
        </mxCell>
        <mxCell id="sDR8SPUoZNO9pGjyw3lz-3" value="" style="rounded=0;whiteSpace=wrap;html=1;fillColor=#dae8fc;strokeColor=#6c8ebf;" vertex="1" parent="1">
          <mxGeometry x="498.02" y="415" width="50" height="40" as="geometry" />
        </mxCell>
        <mxCell id="sDR8SPUoZNO9pGjyw3lz-4" value="" style="shape=image;verticalLabelPosition=bottom;labelBackgroundColor=default;verticalAlign=top;aspect=fixed;imageAspect=0;image=https://www.molex.com/content/dam/molex/molex-dot-com/products/manual/en-us/images/207/207419/2074190081_hires.jpg/_jcr_content/renditions/cq5dam.thumbnail.319.319.png;" vertex="1" parent="1">
          <mxGeometry x="500" y="417.75" width="46.05" height="34.5" as="geometry" />
        </mxCell>
        <mxCell id="sDR8SPUoZNO9pGjyw3lz-5" value="" style="rounded=0;whiteSpace=wrap;html=1;fillColor=#dae8fc;strokeColor=#6c8ebf;" vertex="1" parent="1">
          <mxGeometry x="498.03" y="485" width="50" height="40" as="geometry" />
        </mxCell>
        <mxCell id="sDR8SPUoZNO9pGjyw3lz-6" value="" style="shape=image;verticalLabelPosition=bottom;labelBackgroundColor=default;verticalAlign=top;aspect=fixed;imageAspect=0;image=https://www.molex.com/content/dam/molex/molex-dot-com/products/manual/en-us/images/207/207419/2074190081_hires.jpg/_jcr_content/renditions/cq5dam.thumbnail.319.319.png;" vertex="1" parent="1">
          <mxGeometry x="500.01" y="487.75" width="46.05" height="34.5" as="geometry" />
        </mxCell>
        <mxCell id="sDR8SPUoZNO9pGjyw3lz-24" style="edgeStyle=orthogonalEdgeStyle;rounded=0;orthogonalLoop=1;jettySize=auto;html=1;exitX=1;exitY=0.5;exitDx=0;exitDy=0;endArrow=none;endFill=0;" edge="1" parent="1" source="sDR8SPUoZNO9pGjyw3lz-11">
          <mxGeometry relative="1" as="geometry">
            <mxPoint x="150" y="400" as="targetPoint" />
          </mxGeometry>
        </mxCell>
        <mxCell id="sDR8SPUoZNO9pGjyw3lz-11" value="" style="rounded=0;whiteSpace=wrap;html=1;fillColor=#dae8fc;strokeColor=#6c8ebf;" vertex="1" parent="1">
          <mxGeometry x="79.99000000000001" y="330" width="50" height="40" as="geometry" />
        </mxCell>
        <mxCell id="sDR8SPUoZNO9pGjyw3lz-12" value="" style="shape=image;verticalLabelPosition=bottom;labelBackgroundColor=default;verticalAlign=top;aspect=fixed;imageAspect=0;image=data:image/png,iVBORw0KGgoAAAANSUhEUgAAATgAAAE2CAYAAAD1dY4aAAAgAElEQVR4nOy96a8uyX0e9lR197uc5Z5zl+GduUMSlCgOR1wkMiIlSJa4DIf6kkQbIcZfRBKwrciAIwQyICNApL8gyZfYiiJLDvMp/ih/sYM4TIAYsClRlCVzOENyhneG5Mzc5ezLu/RWlQ/Vv6pfVXe/y9nvmX6Ag/O+/XZXV3dXPf3bS2itNTp06NDhGkJedgc6dOjQ4bzQEVyHDh2uLTqC69Chw7VFR3AdOnS4tugIrkOHDtcWHcF16NDh2qIjuA4dOlxbdATXoUOHa4uO4Dp06HBt0RFchw4dri06guvQocO1RUdwHTp0uLboCK5Dhw7XFh3BdejQ4dqiI7gOHTpcW3QE16FDh2uLjuA6dOhwbdERXIcOHa4tOoLr0KHDtUVHcB06dLi26AiuQ4cO1xYdwXXo0OHaoiO4Dh06XFt0BNehQ4dri47gOnTocG3REVyHDh2uLTqC69Chw7VFR3AdOnS4tugIrkOHDtcWHcF16NDh2qIjuA4dOlxbdATXoUOHa4uO4Dp06HBt0RFchw4dri06guvQocO1RUdwHTp0uLboCK5Dhw7XFh3BdejQ4dqiI7gOHTpcW3QE16FDh2uLjuA6dOhwbdERXIcOHa4tOoLr0KHDtUVHcB06dLi26AiuQ4cO1xYdwXXo0OHaIr7sDnS4GtBa1z4LIWr7NW3r0OGqoiO4dyhCQsuyDEop+1eWBYQwAr6UEkIICCGQJAmSJKkRXUd8Ha4ihOYjvcM7AvTIlVLIsgyAhpQRtFYoyxJKKWit7L5aCwhhiE5rQKkSQghIGUEIgX6/hzhOaufpSK/DZaMjuHcgyrLEZDJBnucoyxxlWXoSnZQSURQhiqKK1NxvQkQAHPkRiSkFu38cx1bK60iuw2WiI7h3CIwkpjGdjjEajVCWCkqVjbY3Ii76zwkvjmPvNwcBwGwrSwUh3DGDwQCAIc4OHS4SHcG9A2AescbR0REmkzGUMhIY/ecqK4FIrKktIjr641KeO0ZU7UiUZYkoipAkCfr9vpXsOumuw3mjI7hrDpLcjo8dudG2kOBCaa6NgLgEJ4TwCI8cEqYNAHBEKaUjuyiKMBwOPamuI7wOZ42O4K45tNYYj8c4Pj60pMZJjv/xYzjBtXlM+XYpJZRSVlKL4xhRFFUOCsHaLqE1IGUEpZQlxsFg0KmwHc4cHcFdcxRFgb29XRRF7hEcgIUkOQCNNrdQ8gqlOoIJK+khiirbHaq2tQK32ymlEccJer0eer1ep8J2OBN0BHcNQcRVFAWm0ymEAISADfEoyxJFUSDPc2RZhrIs7XFOvfSDfX1PqvC2kyNCa+2pqP7vEXq9BHGcQEgBAWOfM30l2585TkqJJEkwHK60SpEdOiyCjuCuEYjYsiyryEZAa6Asc2itoLQGtEb4xIuiQJZlSNMUeZ5DKdVIKIasACIiAklznOD48aFTQUqJXs/EzhnJTzWQoiG/OI4xHK4gjmPbVocOi6IjuCcc/PGZuLYScRxDqRJFkQMASqWAyuBPMWxt7Witkee5Jbssy5mEpQGhIRB5x3IVlX8H0CjZ8f9xHKPX6yGKInv+sC2y2fX7fRtywtvp0KENHcE94VBKoSgK653UWleBuyVzJsCmXc0iuFCKMiqtRpZNMZ1OkWZTI91VNRpCKa3JMcH/h5/5d+6cCImLbIS0vd8fYjgcdna6DnPREdwTCO4cyPPcEptShbWn8Zi2WSEfTfv4XlVREaSGUmTXmyBNUxRlbux7lcqqYa1ojZ5XKQS5GGq2urZ81+Y+GcLu9fpYWensdB3a0RHcE4Qwh5SM+0WR2/xRs4uuEdYik5/b3vxhIao2iUjMb3leIE0nmE6nKIoCENposUIgrMTVZpfjn0PVllK+msJHTP+M1NjvD7CysmL364iuA6EjuCuOpqofACpiKypSU57E1tZG28QPU7T4dq3BSI8+a/vdEJ9CludIpxNMp5NAJUbrudsILnRWENHFcVyz0Zn/JgZvMPCJbtY1d3hnoCO4K47QMxrHMcqyRFlWUhs0MOcJLkpwTVAKVZyaIdBQmtJaA6LqglbQSiFNU6Rpask4PG+TRNmUvkUSKm0jhwR5VKktF5hsqp30+31LdB3BvbPREdwVBhEbRfxTKSOlChegKwTmTeG2mLZmddQdQ6lWJDGRZOXA7HzuQJDdTikThzeZTGrqb+hxbXJS8D9OVlEUWc8r7xsnOkBYia5zRrxz0RHcFQT3jJqQD1OA0tnZdINURv/9x7nI43W7ODeBUwVbDhJmfxGc20hy1IYLIM7zHNPp1EqiRvLTgBZeHB2Ami2Nkxx911rb5H1Our4zwpDiysqKl+Tf4Z2DjuCuCOgxlGWJPM+rSatdAUoY9Y/bxPixzuZVL3/k9qnHl9Ex7vOCBCBQMaOxgRnvAu8U2ep872dZllaqMwQobaxcSHC879wmx4mPnBEk0fF2qrhmiKpY5+rqGnq9nj22w/VHR3CXjNAzShO5KHOoqhBlPUSiOX1qEdXTbfcJrmrFa6fhSCPjEZlqBSf1OekPVeiIAiAsCTZf73Q6taEtbWhSZwEXWkKESOEloUTo7p8hw9XVVSSJq0Dckd31RUdwlwgeywa4ckJKFVUxykoygpuowHxbWugJrZ8X4GWMlugxNDSEjJp/ViUMuwkIaKiKMM0laHg2O0Y+lCZWFEUlGFa/tfQilOBCr2mv1/PWjXCk6hwmvV4Pq6urjYHFHa4POoK7BHDPKABIKWwSvHEiAEQGTWTVJqHNinerP+UTEpzNG62cAtJ8hq6HqSgKAdaUw9oMpRW0Mup4mk4N4WsWhjLj+kIHBP9OEh2/Zh7iQh7XtbW1zj53TdER3AWBSyyU0B5FkfWKUsiHVrTIS5MjYTap1e1rFKCLimDCGLe28BFOVhWBGYWzUlEBzdKnqlbMObjdz51sJnn4tkKgLHIWZkL9rAiZERF5ZpvIjTsmQkcEPxeR9WAwsOlfzfekw5OIjuAuAEQmRVGgKApEkYRSmnlEq3psUNAKluDo2EUJzv+97gEN7Ws1grMCTiiNSRDBgYhCGfubtuwpK4JrDzheFKS6K1UinU6RFzmoWICq4v6ahm2Tt5UIj3JdQw+tOZdx0gghMBwOMRgMOonumqAjuAsAT63S2qmihPmPgAjGR1v8mjtmsTARi1aCYztwSagKW3GpWacnN8CXdk1Qc4ksT6FUFXZSAipwvADNwcKhI4KIjqqX0Hm4IyKKIuuI6KoMP9noCO4MwEM80jS1n3kVDJNmVLJ1R7U3kUM7Uhj8uqi6SmrX4k9VweaNWoJjnk/h8lBdSj3BVOi1UXBzVNF5aL4e53UlCVhrDaVLQ3jaCI1Wbp2RDcG3J0liKweH5yOVOEk6R8STjo7gTgmSMsgTGkWSBeWiUkWJnEglKm2RSSJBWoilyY4UEp9va/NVzkUJzh2rACFdkIeV4PzAYRYEMvNeLEsEs4YffwFQf+leK1VCw1Qo1tULQ2nYyiYcJIWFhTmpcrDviKifu98fYnV1tUv9egLREdwJ4UI8KN9SQimSzkpLNvV4M2Ow52SQZRmyLPOyF2iFKk529J2ODaUSXyqcEdNGDocZBEeHndV8bovZW+QYIiS6PlpXghasVqpAUZbWNsebboqh4xIz/dFaEKHEbNowf4PBAKurq50j4glCR3BLgm4XSV9OYtPWRsRDEfh/IjiS5NrUI0pWL4rChjtwwgNQI7/6pOQhEYH8JSqvJABRLf6iRSX7CFHFs50tmtRP250GomgKieFSHJVookojRVEAgHXeuO/uZRKq/eELI4pM1WBK5g9JruothsOu4OaTgo7glgA5C7Smqh4FyrLwyEkwmxURmmZ2rfY4NX9C08SkHM40Ta2kwdcfJbU2jAfj7ZIk6UI6jNHKWN+4GiiNE+EcCM7vT9050LQf/42Oc2letBqXwsrKClZXV60UTB5rsnfyTIlQ3W8yB8RxjH6/b1O/eJ+orTjuYWNjw6ts0uHqoSO4OeAhHmVZ2PUOylJV2QYVuSFIxWxxCrRNZto/zMskzx7gUptCsouiyPMScs+fszsBLqasOi/rc1PfTus0cP1v/k6Ewa+3ScISQiDPc4xGI08i4+099dRTVpKbTCbI89ysHFbkUHlpgonZeZskYE54lONKISNam8VxAOfZjeMEm5s30e/3T3WPOpwfOoJrAU06WmIvimT13ZUqcl5SyWxW3AakvQkbtu/HYvn11vynQlKha48kmTRNEcf+Yss0eUP7HaGpOOZ5EJxP0g5ZliHPc4/UQ5ti2P/p1KwLEdrI6PtwOMSNGzfs/kVR4OjoCOPJGOnEHFeywOCQzMJ7xbebRH6S1JwdsCgKJEkPd+48ZSXpDlcLnXzNwCdiWRbI8wJSmrgoKjDJF0k2KhJPQ9KM6IB5fkd+Pr/kD33ixwv2m0C/P0C/P4DWCqPRMSaTCSaTic3DJLKjicrrsZlzOS9p2zvupBM2JDb6n+c5JpOJ7QMPup33x/dr6meapijL0pITSV+PHz20US+KkjIASFG3Z/JwEJKkyd5H99XZM01fJpMx9vf3cPv2bWjdOR6uGjqCC0CxbEWRWULj6lOoAlJIRt32Bm+fEPM9ibMnipv0EdbXN7C2toYsyzAajXB0dGRLCFFQK5dSgHrNNT8l6+xxfHxsF8jhRBV+59Im/xw6JbitkkJsyCmjlMKbP/ghfvCjH0DrEvfuvRuAgC4VEAkICGhmX+M2VF5yiTsn0jSFUoqRnFOjR6NjDAYmlKTD1UJHcBWUMpKQWVPA2YY4uK2IDP1RFFVBvBIm3Uext3w7msjNbWsP5m1oCUSoFOqglMLx8TGOj4+tra7f79sKG83hJ0YabevTIpJJm0p6eHhoyYfaCtVm2s6lKr5/qFbTb/za6NiD/X3s7GwhljGee/7DeOpd70JZltjd2cXO7g6KPEcUlZCRAERkX1xEbpzk6DcAtjiCW8VMMXX40Fvhq8PVQGeDg5HaDg8P2OpUupZtANQ9gKFBPIpi9HqJV0q7DfUwETR+boaCEBFMwcjZquZoNMLh4aGVPvr9Pnq9nmena7KBNV0r3z5rIvPjJpMJxuOxbYOIpM3u1WQj01pjb2/Pu28U0kHERsc4klW1+0jPdXdvF7vbO1B5ARFJQNIqXj1PVW26R2STMy8DcwKjGke4c+epjuSuGN7RBEeT9eBg30bH0/amdCr+n2w0BD65yAbEA3bbiNG0uQipVX2m1CghYRPbhaiqezQ7CgAgTVPs7+8jTVMr9VAVXCKckGjCNkLDfhMBhvvt7e3Z70T8dD6SjJrUZ050ZVlif3/fttHv922FkKbzhus/NO1TliX2dnexvbMDVRSIpICo7JZR5GIOwwwT2mYcS4bkaKxsbt7EzZu3uvzVK4R3LMEReY1GI0wmI/u9TYILb9OsCR5+56u2c/uSab85z5Q1ZM4PDUHSk5SU91VdjJFYUJUN17qyqDVM7CzLsLu7izRNLck1eWBDNdLdB5dy1ibhEcqyxN7eXqAKy4Ao6ipz+DcajZBlGYYrQwz6Q0jpFprh51VKod/v23zgWeBe8p2dHexsb0NKQEYxoiiBlAKRlJCBxMnjD/n1mmULh7h79+nG1K8Ol4N3tA3OrNI+9jyj/I/bfcKIeNqfMIvsKEkccCtCGTVofm6jlxFK/ovKxKe1shVwTTtks2pop9rY7/fx9NNPI89z7O/v4/Dw0Caek2THDf9a+ytpkTNlUbQ5WPjn0MEQ3uder4e19VVzXVrU6sChugfkUJnvwAF4Ct3m5iZ6SYKHDx+iLAqTz6qlzezgErdSClJK67ElSGkW4J5OJx3BXSG8IwmOotsnk7GVXOhtzj2n3IMaetXawPdpmsgUYQ/463zyWLqwPZ4vama5Ms5ODVbvdjkkSYKnnnoKm5ub2N3dxdHRkbXRDQYDz4lSl+gkgHq2Q0gqLsSm7rBpu4ehSimEQK+fMNL2w3RCs8Aitk9jEtDeSyuKY6zfuIHdnR0A5jvgqJxIjYqUNtksy7LEaDTC6upap6ZeEbxjCI4Iylai0Br9ft/kkeoSWgskWmMwGNggTqoqS+k/vK22iWSFLDZRQ5sbbSOyE4LKa/cqCSaQlIRwy7oIzTezfRcH3z9JEty9exdZlmF7exvHx8fIssxKdKS+0mQ2hFc/ZxuB9Xo9G6DLtze9BPixfLuU3IEgEEWiJmFT6aMw04H3zUnmpJ66oO2yLNHv96G0ds87jhr7XJdoYSU741QxJNc5Gy4f157guO2JYqZoe1HQ4i6ceMzbmpfRIbLjq7WHjgN7PvjpT67d5kKMtB+1bRwTPSRJzFqkiebILcRialnzcYAhumeeeQbT6RQ7Ozs4Pj620uVgMLAOCcBNZu7lDM9fFIWNfUuSpDXMg9+bZtIjfRwmfg3+fmVZWnKTUlqPrT26ZnZw1YIp5YokTCEEyqIwAcFIAJgSTBrwSB5wEp1P/NJ65AeDYZfdcAVw7Z0MlJPoFlAuq7JGzmMqhKvuaiZqs/rFE+ApL5Tiu9oCUjlCe1ObGkufjRTVh5SRs8GZk1gPqiMXI+OddD6FRvvRaIStrS0URWGlueFw6HkvuaOA2ijLEsfHxzZflq4lLBfeFooB8CBkmFg1AAJOhQ8lKPrOK7AA8EwMvMQS/Q9NEgDwxuvfh9aavWgSiOqFx73iRGihhEsvzrW1G7h9+3anql4yrqUER4PM5JBGkFIgz1PmGXX7OYIx1ntO901qF03Efr+P9fV1u+TdZDKB0gUEeBqUfx5OIqEKG6pUUkpPquv1epBRhHYb/3LvqXnvtdXVVQyHQxweHmJnZ8f2ZWVlxdro6H7SPSnLEtvb23Yb/09EGToS2mDuSXXvIKvgGLNWBb9vgCEvyjSge8sdR5zYyPzAk/z5c6FlHL1r0xqlME9WMRKmtqmiCD3HOI6R5yn2dndxY2MTcdxJcpeFa0NwPL7JSVWiqtVWem/pOhZLTwonlta6slP1sLq6XnnRxtVkqwfehiEnXOoLJToey0VkTbXPuNTk/i90Ca39abOFbW5uYn19Hbu7u9jf37eViAeDAQaDgT1ea439/X2rvjadI89zr9RTkw3ObdPWgwndnJfKy5jz85l7D/vcucTGVVLedwK16ZwPOWIkVTuuXBIRKBFnSN5aayhdYH9/pyqUud5qc+xwfnjiCY6rIHmeQwhTNpyyEmatmj5vsLXZteqSHaldSZUXqpFlKSbTMbI0r9YOhRWyZjkp+DlCuxSXSrlNbJFrabu+WcdTH6Mowp07d7CxsYGtrS3riMjzHCsrK7ZM0XQ6bZROeVumAofLPmi6bq1NIB8pp+Z4wATVOomMOy5ImnKl4mkfZV96oTrKzwkAukpxIxVVCLPmRL/nziMiackV1XVOJhMMBoOGGEfTJ1PiiqTfrlDmReKJJLjQo8lzBIsiR1Hk3pt5njrU9nt9ItBEMxKG/zt9FhBCotcboNfrQymzmPE0naKYUUiyKbarSWrhREGq8rJFF2eFbISqNN+eJAmeffZZjMdjbG9v4+joCHmeYzgcemQb9p/OxwsAEMHx6/aIXwMmNdYcy8sr+ddi9uHkNcvO1kZw08kE3/vedzGZjG3pcmpLK3ccSc9KKYDU1+ocodMFcFK6UiXG4xGm0ylWVla9GnId2Z0fnkgnAw0+Xl3XLOSSMxXFGdznEVyoVvHz+PuZqremPVcTzKTzkBpTVpPdC9GtVLTMFmMM2+cSWxPCFCr+mdKXFvXazXrkbQTX1MbR0RG2trYs+ZE3kVQ1bpMiu10Tac9SkWedn+ypWsMzRYQSG+A7HPjLryxLHOzv4a//+psgx06cxOhFMWRlEoh7CXpJD8PBAMPhqg2MlmwJwjt37jQ6msK+As7rSksTdgR3fniiJDgaKGQkNkGXJbJsam0ufD8aZ6GkwNsLP3P7Gp94WtM+RjUajcYoyxJra2s2DKIsTdXZGzduwBKclBAV2ZL0Qkbx6XRakyj4Z95XbpPj0oEQogpanliJLiQ6fi3zJlMT6bZhfX0da2trJtVpZwfr6+ueySBJEgyHw1qGAd1LUu0XBScmR1y6Rmx8ycYmYqPvh0cH2NvbQzqd2LAYawMtFeKqzZ5SgNKQ9v6vIY4iQAgMBgNsbGzUriMcT9auCF2pzQoHBwdIkgRra2tdSMk54YkgOG7PMKqZcSAYO1tpf+PqEDf28r8mD545zp7NntP8d30QwlTHMN7EVfR6PQBAWSpMJmOMx2NsbGz47ZSmXDaXamQUY7hipC6yXRn7YTP5ht9DEuSOCVqVq2lNgWUwz0bI+3rnzh1sbm7i4ODAen35CvFcdaM2o4ivNeo7eZqINXyOoTpKxBZ6R8P4O60VppMJtra3kGUZpJTY2dmx5JhNMy9jwZTCqtqxLzmJ1dVVPP3MM1bVnKX2823+fTBS/d7eLgaDvnVEtB3fYXlcaRWVv61pMAKkjigACv66o8KqrjyyPRwsaZraIF4noQm43Zw9jexuRVFgb28P6+tr1aCWALQtMjkY9DEcriDPzfd+v4/hcGj7Px6P2ZJzLtaD23rSNEWWpi7gQ7tErFnSFE2cUArg9q6zwCJqK8+55Spb+JIxpBeBpJqwHdqPvvPiB0RiTZ5R/ns4tIsix872lnUkKK0gIfDtl1+2Y6IX9yAi8wJNElcwNK4cOxs3b+LDH/4obt26BWB+Rsese8WvlcaFW7ErLEja4SS40hIckRVNXpd5oKC1qOLOnHF7Op3i+PjYqkWhbU0pZcvubG5u2nPQW5nbzQxpmM+0bXNzo5KKBIoixXhscllv3bpZtSVwcHCI27dvMeOywuHhoVdEkYPbqqIowmAwMFkT0ykEy5aYFcjC7Unck5emKfI8t0R33pOF7G2EppARTj5CkGGe9vHVOmojJDfuQLAr3QeqaHj83t4eDg/2vG2qLDFJM+zt7CLp9+yxkYot4SilEEcRdJLgQx/5CJ577vkz8YKGNkjzp6wjYjhcsS/IDifHlZPgaLA6YjMhHxTu4dnXgtQleguHKhEZxMuyxPr6uld73+0ThjdojywoRIPnpQ6HQ4+gwtCF6XSK0Whkg2MplIWkApqwnBS4apXnOdI0hUYJKGdQb3pgofMh9OKFoSWLOiNCtXkRGx5XmbnpgFbF4ksfhsUk+T0IbWmhnY3uUzg2+OfDowNsbz2GKnX1YtRQZQldKuSqxA9/+EM8fPgQvX4PURwjiWIWq2eKmH7owx/Gz/7sz2JlZaX1PvBzL0t+ITHT/ziOsbKy5tkGOyyHK0NwNEAoijyOI+bir6scTapnE46PjzGdTm1kPp1rPB7b2CVdebdo4JqJU0BK8giKSsqoG6tNn8w+AKxkcXx8jCRJsLq6as+ntbaeM5qw+/v7VppsuydpmiLP0sCmVBE025cQelg56QkhGotFtp3/NBOLjicSun//vrXPrayseA4Rnv7E7yMRGbex8ZCPpqBdIQTGkxEeP3qEPMugqjeD3V8plEWJQpX4m7/5j8hzQ7pRLBFJV9H3ve99Lz79mRdw9+5de1+brjH8fNp7xq9Fa6DX62N1dbW2HkiH+bhUguOnzvPcGnfN27sAlZ02BOei9bmExqUELpVNJhNPegL8mm7mre+SpLlRfTpNsb+/Z5eD05raN+enCUnR7c5gbFaNohAASv7Ossx6W3XVP1VVqaX+uT41p24ppVDkOdLUVOYw4V8aGk6yq3b20hpCgqP2KdRhVphGG/h9XhT0TB48eIDpdIrBYIDh0CzUQoTLyY5IjXKJedgHD//wXzRAnmfY2trC0fGhFXeVUtCVRAwAeWZeovuHB3jlOy8jjvpI4giRjCBjic3Nm/j85z+Pn/zJnwRm2MLOc+rUX+i6yohY8zSLDrNxaQRHpzWDNzcJ5Z4thaQVbePPfEuUMdSHREAL/5K05HsDXX7jdDqFlBF6vT4AYwvKsgwHBweI4wQ3bmxU+5qBNBodWVIAfJLlgZ58cu7v72Ntbc1PaRISx4eHUMqoy6HUYvfTulZxhM6V5znyIrXim4bx5JKXL/SAhiognyBUNaXJrhQOjXme1Vlw0g2wt7ePN998E1EUYWVlxUp0pEJz6SzPcyvVc2KjNq00V5bY3dvB3t4utHI2SfqtLErkqkCZF8izHCKSeOWVVzA6PoaUEWQcIYl7+MxnPoVPf/qzSBrUwqZrP809WeSe8Rc52QUHgwFWVla9F1aHZlwawTnPqADPGQTa3owuUNI5A/z9wwftx5iRmonaMWWZ4/DwEIDA+voNaxMjm40J7i2rQUYkVo9Lo89aA0VRoixzz943Ho8xnU6xvr5eq/pKEiH1jWLb1tfXPZLj4REk1QCA0gW0qoiO3zXtx79xaY4THWVEzApVmTWZF5UCTayiRJ5neOONN6zH20xaX5rlISD+y49JbgCODg6wu/UYaZ5XEq15wQgIFGVhiZKT5ng8xre//QqSSELKCD/98Y/jV371V3Hz5s3aM511P2b9fpbgkqp5fhLD4YqXItahjnMjuNBYHg5QAEiS2IZ8NLn2/YkJUBQ4fW7anxMXf/v5REdL5GkcH5t0o42NTURRXA0g4709PDzExobxnIooquqRMajSvlnNIHO2OB5wSioWVculbdxDSG0450Bs4/24w4TfX04CqNT50r4sKNui6V66//yc3BGxrNratr8jJPfMYINdS7zxxhuYTqf23GHGA/eg+u0ZKfzxo4eYTsbQgJHUlPLsdKTiqryA0gp5dc/u37+Pvb19vPe978UX/6u/iw984AOtL0pOLBwXSXBhX+hcRgp2johOmvNx5gRHzdGb0tmrykoFI7uany6TZamNoaJjuIcN8FdfCm1H4QD033bcZmYm/2g0Qp5nWF1drdRUc2ye5zg83IeUEhubm1Z15nYtoTUgzISi6hpGfR2AyvlIaWK8uErFHQtra2u2vljTPeQkzO9raGFJCmYAACAASURBVP/iRGfIvKgmO0X4z85i4PeHfie1NZQMliU9umZzLOCkcP/Zv/baa6y0lfRqrnFJl55pUeTY2drC4cEhAI0SClppa8clguNSm6q27+/t4/7rryPp9/GFL3wBv/iLv+QFf4f/T3Pt5wlH/C48x2RExJ1Ex3BmBEfN0MACYFU5M+A0zNoC1SDXZBwnslLQ2oVGUBoTX/GJOwQA1LxK4QANB2U4YHlFVuIhY/uiAS0tsSmlUJQFsjRFWalMNBmd1EPFMkXlgfWlSRqUNJm9B9Ei/Szi6aT+lWUJISsPZKE8CTF8zOELIFRbpZRsvYg5K3819IdUdbKjErHxc9O+k8kEr732GqJIVvfUrUBGNs/qQOzs7GB/ZxulUtDCXXdZlijy3Epw5nuBUpVVReYM3/3ud3E8GuGzn30Bv/mbv4mVlZVWYmsjOHqOl012oapuINDr9bG21jkiCGdCcNREmppQBkpvMduNxEQDHQA03KDXyoVf8AgvIoLxeGwrtfK1Rvl6lVziA3x1LFRt7IWzSW1DUSCqyrFGSshztx4DvSUNmcUwEp/y2qPzaG08hhSWQjFVJr2s8NRWKrnNq0uEavci95+ugxwVUkpkVRFI8tzy2DGfiLQnGfP7R4n8syTNcJu7504lpWfblhv68OEDbO9sGakt7tvnS5Lk8fEx9ra3keYpUCqUWqGoJLOCTAF5jpynbBUahSrw+huv45VXvotPfvKT+Pv/4B/g3r17tT4veo9P61Q4a0nQv5cAFYMwHtfOEXEmBKeUqXnV7/dBVTa0ppvuPntvcFJTdPgWqoMm52QywWQyQZqm3opUfCFhTnZ147//tjO/+xOdck2jKLIFJsNBPWuw0EruFAbhjpFV/qWLnaMmqUR6OPEXtanQcdPp1MbbCSFw69YtCCGsNMyDZfk6BJzswpcEDxSmwGZ+3rpZgIWsgJOZuedKuUBpGif0gnn5pZdQqgIrq+uIE/NM86zA4dE+puOJdx7yrvL4uNCZsLe9h7/91n/C+o0b+J1/+A/xiU98ovH5LToFwpfmSXBeqm7T2NFaWMdNUzmrdwJOTXDGfpZV5GZUNCOt0WDgBIeWbSzX0KyFx/Z1IROkGhRFgdFojPF4hLIsrc2IMgTCOv9NROH3xxAQqZRcyiECoMlDEg1vp81WwyWr6nZDiPlGbNq/ab8mKSLLMozH9fVdAeDpp5+2ITCc6MheFTp+uD2O/nj2Qyhtur74SeS8H75U5wJYnfpaSXEPHuBHP/pB5QnWUFpXJeArVVuZ5HSlnfOKroMT22h0jJdeehl7e/v48pe/jF/9tV/zqpk0SfiL4KwIjrd1Vmg2QQDGXCJtYPU7zRFxYoKjQUkGdnPjfOMnqkVQuMoCUKiAb0j3CUdDQ1XpNX4VEHO8I548z3F8fIzJZAJAe2THy2OHZb75QzZ9oMFPk9z8nmWZLUVEEmN4D9rsfLQPYEJEiqLAjRs3GqQed+2hhAX4cWuhDXI0GtlKuuE5tdZYW1vzzknrR1BFXioWGkpxPHYudERQWSZTGBKMwOuSenPcGu+jsxPmeY6XvvW3JpVKGUOGMW9U6rxShuBKl7JFUpwuNaZZilde+Q7euP86Xvj8i/jt3/5t3Lx5s9WWxq/7InFeUlx4jjDSIIpiG3BOuO5kdyqCo9I47i2u4MazG+g+pN2X2uGwUoj50T6gphg5p+KZ7ePxMY6OjpBlOZIktqtBcTW2SULhbejKYUrPnYzlOljFij5rra1dzUmxjiwoH5Ui9l2bvlRDZMMnIJegiORDR8Dh4aG3khQ/Nx1DxRj5PqPRCDs7O8iyFJo8rdJf2YrOzc/Lyc9IswNP1efSL+8Pf45Oja2HgLz26nexs7sDykDghE9klhe5SbWq1NM8y/Gd772Kb37zm/joRz+K3//938fzzz/vkWsoVb9TEN5/AEiSHtbW1pfKS35ScSKCI5WN1EPzFqY4NhrsdaM+/8/b8tU4t52L2QCgVFGTCPg+TqrLcHh4gNFo5KlVfIm3UH1tkoB4cDCFf5BqNJ1Oqz4pm19J18cly36/b5O0QxUUgA06JTJqIrFQguJ/h4eHtVpyvB9KKWxsbJgKtJWdcm9/F9/9zisY2rU7TQyfBjwSa8oTbZLqyDbXFLMWvphCAgyf+d7+Dl5+6dveGLOSWllCVaRWVKaRR48e4ev/4S/RG/Txe7/3e3jxxRdnTthlCe4yJb2zhnseLiOCUgqvK05McORUMDfNrTMa7gc0vyGaCK+mprZIAfSZTyhOhAQFjePDAxwcHEBrbVOtQqmuyQPrq47G08ulOiK7kJgp0V5Kad31TfYRwGU2zFMHQ4M/33ZwcGA9p+F9JXKnUIs0TfH977+KrUePkBcl7ty+g7Uba0jTDIBAZIkthpCi0Z7ZZN8kuyS93EjabSK8UCUP74vWGn/x9X+P8XjsERyRnAmBKXB0PMJffuMbePToMb70pS/hS1/6kk2JOw3BnZeN7LQ4q37VPeiwi+FcR0fEierBuUHSTm7A/IHG/zuvpvksZTvBkbPBqG7OG+dUHtsibmxsYH19A5PJGHt7ezg6OrI2OpLqmkJOqP9ORYXXNr30oiiy9rLj42MopWwQb1sMGmDIbTKZNEpnoRc4lNrMn7T2q1ACFULY6+NEGUURbt68hcl4ig889wFsbGxCa+Dw8ACPHj1COp0ilqQOC2MiqK6PYv6ofe4IIVW81+tX18tfPP7fItLCs+95D15+6VtVuptPcHme43vfexV/8zffwmc+82n80R/9L7bax7wxt8jvTbgKau1pzk/9p/sfzid60TpHxPxKM08KlpbguO0N8NeQPGVXwA39AH+ovmRn8y9VSJTaTnqzDdBCQGh37HRqiG48HltDOf2fpYaRHU5r6peJg6MJSzGAYeS9fx3O3nZwcNCo/s2T4ByZSZRlgcPDA699KppJEioHv3fhdq01Dg4O8OjhQ+S5qZ4sI1N1V0qzJGIYbB2G53B7bNtLKZTcQ4+xlBIawNf+7f+J/YNDE9uW5yiKEm+/9TZev/8G3v3ed+O3futL+NjHP3Yh5NN0jos471mpx5zgmjQm/ryiKMbq6poXYP0kk93SBEdJ8r1eD2WZN06Ys4MhEnN/dfU9VFNdv4QgEtIeydF/E4Jitud5jp2dHbvYCC2QQkTHJ7AfU0fxa+1EYXsvmqPeDw4OvDS2kDTo2DZvJqniWZZiNBrZNngIB1ejCW3hJ7zvSpnFUB4+fGjCf+IEMgIiaVaZkkza5UUrqd8U5E1t8vb5feHb+bXSdY7HI3zta/833n7rLRwcHOCll76NjY1NfPGLX8TnXnwRABaSBs8LF0lwdL7zQt0cJCpHxNqp1969bJyQ4FIkSdxo3D4fOGO/bz/wFxgx/XNHme3tq9qTNLW9vY3joyMkFUEMBoNailiovrr2615V6h/vL0Ephd3dXU9a40RKA4rbBdvi+Q4PDyGEsCXam54FkVqSJEjT1OtbG8oqj3V3dwePHz+GVgpxJBElMaR094TnjIZETNfedB9CdbqJyOnaDw8P8eabb+Kpp57C3bt3a/fgsnCdCI7DmXsAQFepX+vBS/7JwYkluCgSNpfz4uFsUPTdXIayaqsjGy7tlfYNhSD2Lk1TbG9vYzweo5ckSCrj/HA4bCyvTZOwKbjW9lLU03rKssTenlkbIFT1OMFxUvUXkzExelprm+YVSmoEkshIKh2Px7ZfTeBv8bJUKEtTW+/tt99GkWdIErMWKKmilEbFXwIhEYdkxl8ATeTGJ1JIlrwd2nZZk+68nRF0bWelpp7k/DxA3dTse/JSv5Z2MjhV8HIGFyctgumGsUtJ6ROc218gikRlo3PxboR+v49nn30W0+kU248fY3R8jKzXs1kavIwPJyLXh2bbRoiQGJvuYbNTwREcgef8mmdSVwtDCXTevaWB7WwyEW7evIkHD94GkENW/ebOlZDwm9b45OTW9rKomwOu7kRqenmdBxZ5aS5y/DL3kT97Gg+UIkk16JZt87KwNMGZpPcIZVmcR3/mwt1UnnNHUpkL0jXPSMKuwFVlKwhhPKA8xIMPmMFggHe/970Yj8fY2jJLzGVZhjRNMRgMvPVGfeN/vaoJBx9ovV4PaZUID/iZCv41Nn8OyUpIAeP0FB450bmklLYUVRM4sTX9JUmCKI6Q5zliVAsgC0CWfqI+7xtdE38Rzic2iWXmzGVPsPM8/zwp+yzaWuZ4I9UXGI2OMJ1OWJmxsznHeeFEBJckV2O1QV9q4hKRALm6Ka1LCNpH1iYlLxVO22iRmqOjI2xvbWE8HttSTuR1JdWVJCgpTaFKIzE2ZV64ZP5QvV3kOj0SkRWJVZKr2Q67YDFlVtB1kv2Ng5w0tBQjkSOvqWbXiQCgygIqEihLkx8qtEYUJ979o/PRZ+pvmyrqS5emcnL4bK8KLktdPA1Och/DFzSNcforywIHB/tIkh5WV/3Ur6uGE8bBnXU3zhaunHgEs7gwYAJ1SaIzW+jZc1E8fLA3btzA2uoqdnZ3sbe3Z2OxkiTBYDDAYDCoVEFAKQGtc09Fo0FBlT4UU/FCyW3exFGKrzPKJSS6HqfOhqXSw3ZCNT5cb5TnwvIEfSEERAxoTRkQPvHyY8JsiFBiM2o+n4D1bJargrPsy2XaDk+K+jMWKIrSEh15XK/adV0NUewMEN7YMJTDqK60RKD2iI6OJ2O9b2AFZBThzp072NjYwNbWFkajEbI8RZalyLLMLpjSpKpprbG3t+fliwoh7ApiTUUAwr/Q4AwYyc1XzetFK7V2yxX690Z71xkSWxMBQsOWni+1Qhy5suJaKSjhHB30Pww0brK10fNoe45XCU3E1OYdvohznydmmUvoudHYKIocu7s71hERvrgvEyckuHoVjauEJjsd/804IpzYTcRGKlPoJKB9kiTBvXv3MB6P8PjxI0wmUxSFSQLndbc4IYXkxvtHklNTCEgYYuHIjiRP3xvJ/wDYaiG8PU5sXBV168/WKwBbEtTGe66UqaSLaqUzKSSEKBE3EBwtlxiqpUTKWnNp24dvX63jsib8ottP0taTBKc1OBNNmk6Rppm3VOdlX+vSBMdTPZ4EhKpiKBnRn7UzVGWcIkS1yU5trays4n3v+3Hs7e3h8ePHNpUoyzIbLCyltBUwmvrDYeya9TUQqN8h8dHoCklRKVcpmH7npENkFdrY+G++97k6XyUJZlnm8l4TU1hBCFlVIRHQUkKzc1LuKK2U5fpKi/eIcBmf2rWH9+4yxt55kOmy9jwuyV8V4SJUW010gsLR0REmk4lbsOkS+7o0wRkj9pNDcIQaSQA1oqPFoAENIStvofYXmabjtNa4efMmbty4gcePH9uqHqSyDodD6ynlxBU+bCmll4EQVksJ9xeme0BAXrxAp+svWiW2kNjqNd3c/7feegsPHzxEHBt7Zp7nZj0EaIgciESQgM/aIenWJydmBG0ZSvMmxVWY4E8SLuLl4J6JQpZNsbNTYGNjw5YRuwyciOBmhRw8Cag/aONlJfXS/AlAaEAAkZSU4eXlVGpt1p+4d+8eNjc38ejtBxiNjlEUhujaVC/AJ7bQq0j7canHLg8IvlIVz+rw8wr5G5VLalRDjausbaWq0jTF977zCh6+/QC9QQ9KJeY8SqNUJXSvB6GBSESQUVDDDqgq8rL4PPpC96WlSMPiz+1ycBYS1EVfy3mczx9ztNUsuGRebhn29naxuXnTjvOLximqiZzuxKHadxkI++BLP0Y101VtO0M+RhXjS/FRO8PhEO97/49jd3cH29vbyLMcvSqchJ8DgM17bfKkEsLB0HSfQrtek/MgJLcmqS2U2MqywO7uLsbjER48eNuUAxcafVTkqjVEKc0K8tpliQyHAISJy4MQWF9fx9r6en28MOfIeeKsVLmzHqMn7VeT4f8y4MYL/87t3gAgbDD43t4ubt26fSmS3IlscE2Y5U1qito/azvCPG8WP1/YDz+GjlKE3NqtVpqzC08bAmyqGHvr1m1sbGzi0cOH2D848GKEKLSEe1y5ilzzlDaoFW3XFtrR2sI+mrzEbsAq7O8f4GB/17ZxeHSMKJLQAk7CVBoiko7sIDDFtLonA6wMh7h7965NI3Mn8npdu46258X7eBGY9/K9bIK5LPBnUJlmq3tBnMBfmDSeZfXC3MGdO0+15kyfF07sRV2mkzxs4aph1iCmdRlMfFsJQEKj8rbaQOJ6DmgURbj37LO4dfs29vf3EUURVldXG4ztjvxJTTVL7bklFmchdCAsQmw8KJc/j+PjI+zubHvmh+3tHaRphjh21XqjKIJQGjKOoUsFXZTI0wxRL8Ht20/hve99H25Wq3ldNq5CH5pwVfu1KLR266IY1POxSW0lD3qeZzg42Mft23euPsGFHp02LENooRTTdOyiN2ZRqWfWbxS+QERnwkpMeAktYi2lgJARVNnsbR0MBnj66ae9BaabrpmumxwSLl6vuRQVH0TcwUDERna20AkRnhMAsjTFzs4WptOps8tpBQGBhw8foCgyCEFSqEAca6iiRBTHiJMYeVliIAQ++oGP4LkPPGfU0yUxT/oOnTtN+14Vz+J1hK+S+mvdcjXVJziz3TwSM/bH4xH6/T7W129c2LM6EcGZhOpmG1EoGbShyU2+yEU3EVOTsb3tfIu2z/+HoSWVGxNKFRCVrYGvAhaq5Nx5wdsEYAuGUpI62TPcOf17FKqi3NZWlIVd0Z7XxeODz0p6RYGdnW0cHx/bNWo12eyKEkWR4fHjx57Tg/SSMoogVYlpmuKjH/0p/NzP/RyG1Srxy9zrtvvPX55Navt547T9v05E68YMYAysAKBq45L28aefGw9RZHKZj46OsLKy2riQ+HngzM5ylupnm/Q27xyL9qFtv3nSAb2NogjGLlfFypHKbgKIzT5a+8RL7XGJCwB2dnZsypdSyqZYkWjPczt5QC6X2JwDoQQVFghr5fG/g4N97O3uQpWFXR5IKbM6FbX94MED5HnhrkMDSisUSiESEe49ew8vfO5zuHv36cZ7tgxmPdtFnylv4zoRzGWgydYGoCoY6zaE6ijtT7c/fHZGVc1xfHyEjY1NAOf/rE5IcPVqseeJeSpmaKiftW9409smRbidS2DkhDC3zySqm53LKqwkgirNvmF1DyIspUxA5NbWFgaDAVZWVrC2toZ+v2+T+AlhkU0rsbFV3UN1leAkOIXj4xG2dx6jyHOzVKBp0Fv3gGx0b/7wzSpIWRjiVIBUAhs3NvHii7+MD3/kw63Ppu3+E9o8wqFEsOzgb3u+y7RzWgnsupCrT1rVesHw54H7PdTGmtdTMS/+EpPJ2Fu28DyxNME12ZKuCi6qXzQJDO8Y+5yJj4sgjMIHGQHQTmoLpUMpJdbX13Hr1i1sbT/y8lopG4IqClM6l9baIyIerMttbryPWmuk0ym2th5VSfcaUMYLXCg/8JdyTQ8PD7Gzv4d+nKAQ9Mwj/OLPfxqf/sxnTuwJuyj1rc38sYg0eJEq5qJ9ugi4fggYRxf9YjSU9m5S5DlJbqHaSgRHJgcTRzuZTLC2tnbWl1HDiZ0MFxHHRJg1CM5qQIZS3qw2m+xzREBlqWGigo2TwizcIlpJ7j3veQ9u376F119/A4eHh5hOp1hbW8NwOKylfTU5EXjQbigBFUWBra3HONjfNzaTUhl1tCyQ5wVKrSyxEclBabz++g+gSo0CJRQ0fvqnP45f+ZVfwe07dxY2EzSRTNs+F41Zz/eiglFPe+30vE/bX3/c8DRMMl74+5r/9EeFVttsck6LcfY7E7RO4/y8cWIng5SXv4Yil1IW3X8RtE3OJjU2lGhdIr+wD15IE92ttHNE8Ek2GKzguec+iDff/BH29nehDhXSNEWWplhZXbWxdGEISJgryyW4g709bG9toSgLQACqWmehKAqURQGlNfJqKT6tNYq8QKlKTNMpdnd3ASHw7mefxRf/7hfxEz/xnHe94f1sm6yL3r9FCI/vN2v/8AUVHjfPFBEec16Y1afzRl2NB8BqGFZba/tYeywxlZXYdC19M1RjAT6vzIJJVFvxPK//xJkM4Q24DJzHjZknLfLzNtn+TOycEfEVLWsoqhpwQkIKoFTKhpYYkgKEMNKckMDuzh60Nnmc0zRFv9+zL5TQJuipAUphNB5jZ3sL6XSCMlBflVIo8wJFWSCrpDY6T1kUODw4xA9+9CMMh0P8+m/8Bj71qU+xgp7tEhkHvydtv7Xd70XbPq3DKfTQzurTVcVJTQThd1JHQ/UyNHfoynlGKmk14ho1B66WGsjq0Kq4gpRQqrQEd544hYr6ZOG838qc/Mz9YRVKNIn+GkKY+DnoCGbBbAnuqLj3zLOYTlJrL5tMFfIiRSRjRFHspXfx82ZZhq3HD239NyI2Lu3xBZS5JDgajfD662/g4OAQn//lX8YXvvAFmyBP19SGJolu3n7Lon5v69tnbWu7jrNQ8U6Ly3BokDRGzsLQbsZheC6UbpUvmoG/cN3+QlS1Yng3hQSqBeMnkzHW19fPlU9OtKpWmk6rdRmWS5a+LpglydF385sp7e0kNRoEqsqOMCtXuVg2M0DKMsf3vvcdKKURx8agH0cR4iTximSadkvsbG/jaH8fShsHh6rIjcobUQ4q2e7c/xL377+O1157DT//C7+AL3/5y3jmmWfsdS5KXmdxP+fZPOd5x2dta2tzkf2uA3wJK+Smej5yXQIDuE2uTWpzm4R/jKwvQA5VIo4T3Lp122b4nAdO6EWVuEgnw2VhUftI6KBw3912XhbdpLkYWwatoeAkPBMY/My9e/j+a6+h3yd7p4YICmMeHRxgZ2cbSrl4NaU08iK3jgOS2riDoigKPH68hW996yVs3ryJ//4P/gCf/MQngMB+dRaktgh5zUPb8W02uEXwpBPbMmOTpCpds6s550DoQAhaAamjrk2uznqGNlhuoH2UQnWiqtKXAIRAUeSYTCbnaoc7RSbDbCeDu/55hmj3+UkZc4urbH4yvvO4GsIyKqpbbs+lVmmsrW2g3xtgPDpG3EswFCuIY4U8zzA6znC4t480TaGhUFZZC0VZomRhJPQ/z3P72/HRMV566WUcHBzgy1/5Mn7lV3/VLD8IMpP45HbeRHAZoRIhiT9JZLdMuIv5z7/7Thp4qVZ8Py6B0X5NsW30KzMBhLeSHBjWkQFwW16aTm0Y1HlgaYJrMyA379tOWrN+uyo4y4HvS3nm2kNjN4DK8G8CIp+59wy+88rLKMsS4+MRVFkCWkMKCUBCKeMwKCuVtCgLs2CzR3KG3CbTKe6/+hpefe0+Pve5z+G//p3fwebm5rkTzCL38CrH1F01zHrxhGPMvGD54tHNi4Nr7ZLnzdh0xAbU6w86wYy0CiYbemNJwnlnDXEK2kdKoDRaRZqm3iJJZ4kTlUua3RHDzJUUWt2wpv2J9a++x+rsoS3B8Tg6BzOg1tbWMVxZQzoZATBeWA2NQilolDZ1Ks9zUzK9yKFKBVU5D4qiQF7kePnlV/Dtb7+CD33oQ/if/+k/xfPPP+/1ponklh1slyGJnRRNDoizbPsy7wM/t1lRTrO/+r6kkgohACmAIF7T35fZ5oSAiOjeCXjTmAuBABzR8R0MyrLAdDr2nFpniROpqJzk3A1ybw4C3Tja5vdfB0ZMR4h07CU7uE6FeSpeu2vdl5Cffvouvv/aq36SPXSVEO+8okUgtZWlxptvv4Wv/4evYzAY4g/+4A/w4osv1s591td7kuOukyR2WeTGDf1OzaQshHCsAUBIxLraPVRDuW3O97j6IOmwOq+WLWZ6ss8pK8WlqcniOQ9b3IkIjgzjhPpbi+vwpIbRvQvp3e3re2HC9JA2Txr14SRXcrUQXp8QAjdv3gI0UBYFtKrsbKoMCM0RXVmW2D84wDe+8Vd4/HgbX/nKl/GVr3zFrnI0K+7stIPrLMhqmXi7dzpme0eJ2OqEFc6zJhIM9/WOYX4EIJzRwfwWdDBpbJwijSSolLIEd9Y4cTURClBtc9XXB6ojOvru7+u/HcL4HPfGeTIG9mxHhBHZqeIHP4ZyT/l9vXX7Dt5660coysJkHLD4tizLKoIrkWYpXvrWt/HKK6/gsy+8gD/5k/8Wd+/ebe3XVSCJWbakDvPhE5AjLLONS1WicmoZSYxuO5FgE8E572i1c5MTwYKpX/aZ1p0Lmu0jGMGNx2ObunWW4/LEKqqp/BqS1kJHL3UuI/k5XZ/DGeiBdtH56iG8X6EtjscXagDPPHsPb7x+H3mZV5kIpX3rmaBdjbfeehsvv/IKNjY28L/+yZ/gYx/72IXbgy7C4xrinUiGTh2ll6CxtfFQI65h2VxQ0PofjtjCeeM7EhYhNiuqsO+69okvC6C1hlmWyJ2/LHNMp1MMh8MF78JiOHU9uDaVYtb3utRnHkCTujlv/Lq2luv37LYuTrLhwcL8j/oSSYn1tXXcffoZvPrq96BZgnxRFNjf38fLL38HMkrwu7/7u3jhhRdM2McS3u6zxGnv4aw+X9Tzuap2QV91dFqPKadv9/KkOv92hl7U5tAPp3Qtcw/80BLTBi3qTRxBY91fwwFwCfhXguDcw9cNHpPFEbqd67/NHmiUNkIGUOe1rT+bJhthkyR1kQg9qORE4Itr0+8f/shH8OjhQzx+9AhZkWEymeCN13+AH735Jv7z/+K/xJe+9FtYXV29dC8e9fk8cdnXd9Gox7QBJBQ029jq9utwv7Z9PXJb6jEKQJgULk0ZPLS9+m+HhdWPnYSotcJ0amLiznKx6KVTtQBzY6bTKVBVEbgMiceBYnSc5OOkorr3yLdB0W/+94sADS5erLKpeKXplysw+u1vv4T73/8+Hj1+hHc/+x780qc+hdu3b7Nr8iXqiybts5J+muy4V1GqOk+0eT+bHANun8qTClRRZxo8/q2d4IQfxuD5AYOJEm6n3+h3KU24CQBB8G5HegAAIABJREFUoRAaTPqojlHamO4AQCtEMsLm5k37oj4LnJjgRqOR9aaeJBfwpGgjuJprx/WIH21JkNsO6b7PkxjPGpzI2j4DvvpK3+0VzQlDOa8VzULnyFnD2VdnV2s+T5z3Nc4+N0Bj15nTrEWrQapTnt3MEJzLfXbtNktygDRxcLwDWgFCOuLTbn8hhFlK0u8wrJe1EcL7R8dprQFh2l9dWcWtW7fPLLPhVDY4PukuD/NuRJ18uWe3+uXMe7UojAoqoDQgIT31lKS5JmKbhZDc+LEXpd6dVlW+at7ei4QvrQFOxWyS2Mx+tmw4qre1JbX6MzDH8Hmz2HPiLx0AAJW9B3/emvIV/D6Llrg4rY0rQkSALq3j7KxCRk5sgzMX6VIwqt4yqTW8aWczSGdNmkWDaq8KHOmYIWGW3DP2C6UVkiiCKmkf5V6ScwZk+OI5j2sOnSGnRZuEdpWeF8dZS5T8OsPikU37NklixiZe1RcEaYVhCIjTWCr5sDrSSGnhNWmlISSQ5zkm4zGKIgeFazkbsrETU6Ub8xczZ0LL9dQ2iyqzYVJfNPyEOHHBS8/RgGbPp6+6h96IUIo6PeZNBi7F1G9eW8bF+cIMEsnshaIiPDN4osgVz4RVOS7Xy9cmXZ2kb4vufxnOk9pkP4fzNzva6vPEhXW4GNRwHzsX0USCNPb9I6zDjbY6TRRSSLz94E28fv8+hsM+BoMhkqSPKIrswkjkEKAV4CjLKYpixHFcrS0SQWsFgaAKEY/T06biSKmonPnZLEpzYhWVB+LWvZH179ym4MO3kfnblp/EsyZM2wBdXPWj/Zfu1kzU09kEZKVC6EoqNotPoyK7xa/vsohwVphQU5+ayCSURK+Ch5gwS9pc5J7X74/3rVL0nP3MqaPaIyyfAP3/vvTG+uR5SJn2BaMpCCHxxg9+gP/pf/gf8cHnfwLra6vo9fp434/9GNbXhA1DophNKsJKREcOsbIskOeZJbok6cOf79pNJmcIR1EUmE6nWF1dnXsf5+HEBGcuMLTBGfXKh9nmS3hNtfHN/zaHzaI46wntBsgccfsUIFIje4oxnWnrbKDBxCWkcBGbtn6ftSo5D/PDenRt25OC83GmAE6hVLDjTJctI01WAkPdJufaJHKrHG/zQj6crAKtNf63f/Fn+Of//E+R5zkODvbxuRc/C6UVfvjDH+D9738/VsQqCq0RVURHx/Hy9lprb8HzoiiQJDkGg2FVLkzZU5sPJihYCmEzdM6C4E7pqhDsAQm77eQIH9r5Tcomd7n/ndZUABAkJpMkdZacIQQqNbUy1DKxn4vqxt4BRLFbtnAWwms7C3DirUsKzQg9wcue7zyu47Q4SZ/cvePjyKzCZqAqe6u7ZqU0lAJb0LsET6R3+81+6TVCaehSARqYTjP8k3/y3+Gf/bM/QpHlkBB4+eVX8KMf/QiAcXq9/fbbKFSBUhcolV/6vm1hctqe5zlGo2PkeQqzglfT+h1m22QyRlEUp37mJyY4HqHsE1PYoTCMo7kisBC+6sedFUKQ86L9rbUM2m6a75WyPQn66lRFd5wjw9M8D0MAfv9C2wb1zxCgUw1cX3lbJ3vZLDqo5jl8wj/avkgfL9rruyzazAGz7rkjo/axwvdxpOYnztN+XoUZ7RaQ0bpSOMUc6U0bkhQQGI2O8ff/3t/D//u1/weS5YmrUuHf/l9fw+OHj5FnJp1qPB5Z4qXz2yUsbdFW1fo3Hk8wnU7orsETIKrpppTCZDIJe7w0Tm2D8+0Ovh2A7c0IK7zbiw7gsCJJ8KteXoVo99yZ/zwGq70N/o3J+o3tLdc36kNTtgN0BKBEFAG6WsCGlirkx58X5t3rWfaoJ0ktnYdl70Pzc+GSGN+HXq5U4t61Wbe1eZ1yh8+FRppm+G/+0T/Cd175Tu3ahNY4OjrCnVu3cf/+69i8uYGNGzewurpqCEsoTzVVVXnyUF214xbmpZ1lKbTWGAyG3v2hKWS8qdNTB/2eygbnpCoXA9OyNyMTXxpy31WwvTmJP7Tluf1dX+ahLYSCSxmziK3JG3uWc5a3z43tPEbOiPhkFNaIYglVolrM5nTrKpwVAc079yyH0FXHMo4EX8Wm56Jq+9aIqjGwt4nYWNGLefY275wC0MA//se/h//0t99qd/RIgSzN8OPv+zG88cZ9/NVffANPPfUGbt2+jWeefTdu3bpVOcEUFCSPTAYAW5Kf/tO2PM+gtcZwuALSjAScFpPnJibuNCEjpyS4edV9lwE34tNAaFKBHXx1hx781ZswJ71FIRET0UVRbFUY85uCgICMjAfMV2suD/PGRlsA82X3+yzBSahpHDvCAvwS381t8TbJhmXbDOWHORBC44//+I/x9a9/vfZS5UHicWUDllLi6afvYWtrC1uPt/Ho4WO89v37uHv3Kdy5cwc3bmxgo0q16vV6tb7zPGv6XJYFJpMxVlZWSQ2zxxRFjul0giRJLp7gjJTjG9+FkJVE0dwZs2/J9g+P58eF0lmo/olgP37c5ZKcb78jFYX/fjLJxak7qDzYsjJAk01TAQKQVewctGR2GjOgZ6mOF4Xw+sN0v+sArYUJ2BV1YqurmG1t1KU2879KtRdM2l+qb2bvb37jm/izP/0XqNvD/XkppYl1y7IMKysr2NzcxPHxMTQ04iSBlBKT6QRFWWL/YB9CCqwMV7C6vob1tRtYX1u3mQnhtRuJzpDcYDCspq8ArZ86mUyxvn5jiavzcWKC6/f7OD4+RhTJ4GHpanV3H03jN3xT1yd+k+TGCS9Ua/lxtC0kyvmY5YTwetI4KfngCPdfuAsLnZ/etIa4AK0TKJQAvWQEz0O9uADhRc7D7TPXAb4kxp6VRhXVFk5usP/hczXbmkjQN88xDWapzpqFwv/wD/+wsudqT7UlW5rVGOLIrLlbVY9eX1+3Jbsk5apW+0VCIkpiKK0wPh5hOp5gZ3sLSdLDysoKVoYrGK4OMegb2xtJdEWRI8sk+v0BdQLQ2sbEDYfDE43dU5VLWl1dtSupO5HWX5ehvY3m7W3eqcX71tQm0PyOO9lkXzTy3p1/EWJc/Lx8ojgvZXWdSkKzRT6csVfBOCPqtp+zIJomu+S8fdu+nwSXZc/j9828ZAB/rOma6uX2A5rMMH5yPP+rrlHMuGf8OQrevuuvkAL/+1e/iocPHti8UaUUIN3iMXZMCAEpBNLp1I4dMv4fHBwgnU4BAUQyMpfKSFJGLn1LRkYCVGWJo+NDCBmh3+tjuDLEynAFg8EARZGbLIkkcZZ5ZVbdOmmduFOpqFEUYXV1FXlu3MdxHMO3oXlHsM+nmUz8FdYU5aJq+7aT3vmgeQL7asZpJiMnE3rTUrgIDUyfyIjEmgnytAgdGss4OM6SlC5TInRVc+kF71fwCJ0CIUKbqduf25mr5zuvM0SQojkK7OGjR/jqV78KiaotJr1pnqsFQGkFIQUODw9tPCZV9J5Op0AkkcQJRCRNjGbktAZ6tpLyVs1ql5BCIooklC4wmYyQZSmiI5PaNRwOcfvOHcRJDxARdFlgPB5jfX294pflcOqaJEII9Ho9rK+v21XbjTRHifiwF8wDEXncGMXvtKF90PrnqHqExSUzzf4Wm5C037y/5uNc/5p2mXd6/81fJzpeXskvGmjOaQOEI+mFnZyUFNqu97IcHBd5Tj6eDQnxKrU8vco5BLgjjYJ1TeCuH6Brj4Fww7lSA8/iCr/6p3+GdDKFgoYiVdhp1GYbzOJSw8EARaHw7//iL3F0fISSlqpUBYZrQ7zvfe9DL0kQCZeqJRF4/Bs0GP4nRWQ/K6WQTlM2rY139qQxcWdWshwA1tbWUBSGcaOoPbWJXze5hF17zeepD14iN66a1AOI2/rgG/2pPfurPecyEkbb/s3btfebU23az9fUTlNIi31z1kiM1FbYG1CX9hbHVXMMLPq8Tuvkoc/ua+mN5SanQNASa6P+cnV8IxZ/V1OByYoI2/p/cHCAP//zfwW+AiDln3LESYxeEkNp4MaNdfydX/wFPP300xDCCDBJHANSIIkTxFFknV7QZr1UAQFRSZ8KGkJXpZV0SHBmztJ3AMiyFCtqBSKKAIhKWpzYmLhlnt2pCY5AJ43jGDdu3MB0OkWapkgSl69mdgnf9ryzvio32xvbpGKd7P0mKluFtWM1nG/ZCREe09SGI3p+3bxP9X42b/fPo+0gciRHJGb+G28r5QpykjyNNLfMvmdNjidpbxmVlpOVO4Y7sXxvqNuPaxS62q+dBJV9/kuQm39RaDtQAPiX/8e/RFoF2dp7JgQovZ83U5Ql7t27h1//9V9DksSIowgiEogqr6rhX2nLJUkpK6eDCSGTUpo2bUqWu1A6P8W9ceIyq8TlSCotREMgy1IbE7cMzozg3I0xnRwMBkiSBOPxmLF1MALIBsCChd2bkNprP4dryg2ypt9Pfi2uTd/217Z/W78a92747yaCmxzuHjRLh/U+ONVfWYIjlcH8dxPb/Oxik+b3+8nHMjZCvh83EbiXbJMERmlTbMU3IWwaU1PbJoyHHjSWJzcp2w9h/f9Xf/7n5hQNTiFuQy1L09fnPvh+DIa9WlkkUUmXUsSQkeluJI1tTcqqOrAkS3mlvpK2pjS0mD1XsyxD0usbx0fpUreWJbhzWzue7EBra2tIkgRFkQNgYrmQgDCVEWQg2Tlb1Zn1BuZSZ/21XQeRwEVOeooxXHx/BG9fk7/rq6+UuG8cEtKqJeYaBeJEeqVv5p51SXWBH/ckIHQOuOehg5cf7U+2ZXoxMRLUoV3OvcRoPRFIkzVwLvdHK/zHv/4mHjx4UPVtdmUXSnT/8R9/v7OVSWkITRu1UkoJGVX50lHkbLtSQEiJqCI2xO4FCwGUQVGAugaizXKYVREAa5tLJ0u/fM9cguOgG9Pv99Hr9TAej6CUtrFzNvvAO8pJLjSoSIV0Etrs8856cDN6y87fZLNbzE7W1p9wQFkRvaVvbvsiD3T2PqQuEemZwUqDiYzBusqG0OAS3awBdZ0lPe7xdNKaQJMDwTmOyJMKGAdCSIAhWTKtYMaQOq1KT1381//m3yCOYmhmr6M+Nb0M33X3Kdy6ddONGSGhoXDrqTvQ2sSomXV5lc02kJUdRQrjcY0SEyYitBvTSivIKghdyRJSGxpSSllPrVIKRZGhFw3sjMzzHGmaYjAYLHw/zpXgCNSZ1VXuhKBBESzerFH5cKrvALR2cV2kvi7zvF12Bfd0hXqArw7y87vroPaWJ7n2vp2EjOt9mn+eOsnRoKYMB5cniMqDJwHNK8ie3D7Hz3eV0UxAXA3VM/cz18rVWt+u6a8Wz1XS85VqtdL4d//fvzOSlOmpsfdVfeXZJPT9P/v4x8xLjyR6YdK2qJpvv9+3xS/LskSRFyiKEhAa0r5Io+rFWRWMYOOA/pQuIYPSSVprZFmGXn9g+V8ps7TgYDBY+LovhOAAN3GTJMH6+jomkwmyLEWvl9hBUe3oZCmmEnCprt72/PNzidG16bUS/G/ap9ZqwzF1NJHWbAfKYvY2v736fsyGXKFarzJQDzjxEBECpclI0YBJCTMvitMQ1FUit7a+kP3MwGkNdRtbmGNqf609J9+hwImNERw/KHj2C7/0wuFIwoLWeP3+69jf3zekQ6vhSQ2lNRRceBFdW7/fw4c+9OFKLSVvJyy5cKlPSok4jrG6ugZogbxIq0yHwpCbML8bm50xzNGxhlgLaOkkN5enamrJSXI2KI3xeIwbN24sbEa5MILjkFJiZcVELx8fH0MIDRkRsbnB5SSmplaWUeEI4b7zCIrb5k4WSnF60ITgdfVCNN0Df+I5m1HdwE6OiCiKXY0vDUBr412TGlFFctwRsahEdtE2t9NJivz+6ODFoYMXAb+vDjzsxh0ThDA1pTOiItczvF2iuo6//MtvmGU+SxOAam1iyqyVoIQvaX74Ix/BcKUPGbkAcimkt9oV1wToWqWQ6PeGrH6hUWUNh5fwJrVtG1X8bF0VL/IM/WgF5v6Z2MHxeIy1tbWFrv9SCA6ANVq6kJIJkoR3h9s9QjJrHsDL2Obq4SW8vUV8L21kac+wQBszWp9j+3LqpQh+q84uFpvgJJlVphNEkUkSF1qyiRpBC2VeQqKe7rXM9VwE2S1LbpyszKFuyT2SaJ30Ja2tzdxj3/Ncl/QAbyzMsrUtGfcGaEDOXphFw3g3/+qvvmGusZLKtXLPQ1QXrrWCqhxOf+cXft4jMCkFkiS2NjIhBKR212nGo6rWSjXzmDyuvNwREZ6RIMlxwddxKG34ElUB7vWd+mzsftmCN+kSCQ5wb9rBYFA5IcbQWlUrSalK93biMSG0gTWrraHq4KNtEpjjuI0uJL8mInVv9XBbdURrPxaFr66HE6mtXwu1HLTPBj07j6laoo0dJomgyhKlqmympzSCXzR8u1hYvZmq3YSeTrONfgufg4sOgA1o9dplJphGLHv/RGhDrn8llGWJV199zRG4cLFn1G8JQEsJrRQ+/JGfxK3bmyz9T0LKCEmSePdOAZDa5aGTHU+ze0eOAxpTURSh3+9blbNUZXU5jkzDcvhlWSKKY2McVgpZli085i6V4AD3RpdSYm1tDVmWYTKZII5DCSu0S8AbpEC7jeqi5l6oUjuJ4HSYTcb2G5OSFm873LfJPkftUxqSAEzOodBGtVHzA4SvGgE2vYx8suL2SARhsP6+ngfSEltgazvry7eDLbwO7X0V0Dg8OsL29rb/UqTeVUQHZa4ljiN86pc+VZ3ChYdEUYQ4SoI+OGJ3Y8V/OfLnHn6Okgg92fO0EdqHFj2nz3GcVPdRI88LY5uT8zWtSyc4Al2YWUcxxnQ6RVFkVYJt5cWrxglJZ45A6rY0PtmXkXDcQ2mSwMIGmlU1/zzzGK69U4u8pXxiaZJa2+2Mgk+SwNZEv/MXkPmt2kcZoosiAV0NdHrzhnFNVwEhebFf0JYLSiop27OyJYWljJwq65k3zGCd0zG271mg4X7fv3/fnILbyiJpFpuh/kmjLf3sz30St27d9Io3SGmWCqQCt22kRQ4J2t7sKKuPD389VSftCSHsOg9aKYjIBa3neY4kSWrth7gyBEegi1xdXUVR9DEaHZs8NxkuXmM+u0q+ze350tSyqtQ8NbNpmcTmduq2MiIROZcEmozm7dfhqlkYdYG20nkbjg81HeG77M1gM/GLSnGpxTQopLHZcfXiqiD0YLq0uFl9bHpW9RL6odPBsMQ5SGuz4ImVZM6hN5bxkr755pu1ZSe11giLX6+ureDnf+HnKlurCIhHeua+UOKizggR1SSrZnt5qJEFCfiV1GidGsLftyxLLIIrR3AcURRhff0G0nSKNMsQxybQUDSs1OXbR+g3B19toAHbPBKbnRHhpHD179iRtbZmEaqz99X729afNpKuG/HdClzcZKn1YpJsSHK0jQ9eZ5+rwgykWddSK8HKBwHzpdjzgR/O4bZx84ZPUE3OK+dwoBi2dmlwib4BpvaaFYnR6Fk9SbuexiGArcfbxoMa2Lb88CCNFz//ORtEy1P7jPTmS12c3GyoUZWCRWEeM/vJxjHvTxNc7F51VWL2vOK40gRHFzEYDNHvm5ASAFXu2yx1zHwWCJKX4d7G7CxoejvbVhrJDmgOFm5sYc7v4X7N4n8b2kMifOI1xOYvSyiE26/JftckddI2vqgvEYPWpXEKSYqtw0IS3Vk6Kfi5XFCt3cJIyRGb3z9lt1ct2nZDMrS/C59QLg3seXLs7u4gSeJqfVIX1MtDfj7ykQ/h+ec/6KXq0WcK7G08JUlcLPVvZhdF3UbXpM6GEp3/XNXCteGuNMEBbpIJIbC2toY8zzCdTkwENVsd292f4EbZT9zQFL6NmiSgOubvM1ua8/b07BjUftjP9uNCO1kokdBv7eThXhBaLy7ZNdvnKGjT9J+EEcN9AlrJxv6dNeoSFb9GJ4nxftTIyrXWYpcLrqEKXAW9OKtrnt1RwKvs1kJMZwEBgb39PcRxxIJnObkprKys4sUXP1ezuZKayOcgV1s9sgLNw7qNru37LHseIRwv9J0vhj4LV57gOExMTR9xnGAymaAsNeJYAl6VEoAXFuTk1TSIjA3vvF67y01m/nwX5YFlCaO+f12aXQSkhpBDxnyGldpMcyUiIaGFi1BvQtNb+qQgiTLYWnsJGCnGxXQZR8P8air2ZSBDaU0zA+cCk6+yk1YHLPZ2OQGkEJhMJoiqtTukMNuKkshF4td/49fQH/RqxMUJLiQ0+t0z4VQfm/YNEbY5ixSp+bD9RfBEERxBSlk5IQqMxseIJOW5kfrJ7T8c/uBXSlf6PEkwfgWP+Wprk0TH1daT2qDaCXmpVuaqhm3nXQx8YRLAqcB0D4yKaO4xDxI+aYHNJvj2MH7v/aR4Z1MEbHXdalely8Y3St3WJkJ1gWERc4Vt2fUPZG45H2hoTCcTQFRnkRKRMGaEsgReeOEFvOtd76oKVrpYNU5gTYTFbbT0cvPryTWrnqe5Erq/oS14Fp44guM3LI5jbNzYxGQyQZ5niBNRKUg8aol7lsx333juG+N9p8Ji4BPIHE7HNj2EZUjkbKTLJrXSgA/IMC2J7dXQhdAJwdsm+xxgKkcA2lSTYJMoDCs5qSTq1EZ6vTtJihvU3fdqP1kpiVp5F8v3N2lrvonNEkX9hizVfz+c5HwITmuTOjVNUxNmwdKnAOBnfuZn8PxPfhBRJD3yAszcstJblSTPn7UtcFkRjQCV4AqkvAZJbZZEx/vgzDHLiwiEJ47gOOgGDIdD9Pt9jEajStrXQFU1w9pGLGgikzrmq2jc2N405+ZLdd5W225922y484cq5EXC3KM2suMDNbT9WQmgqhKhGNm4pSY1qDTTIgTn71O9ymysA7Otae1PDo1KBTX7mXFhWhAN53aSHrsPrZIbw6KPh6tjCx5yUmgAWZYjL0pEsjIZCoGf+qmP4hOf+BlPcqNnRl5T+6eNWssJjcOsqUC1Bdlx4fc5xEbfa/+FgAm2NM9kkfg3whNNcAR6MOvr60jTlDkhKFZGMYmuUgpCFb8a/FxVDQ30y79ow0lbqUY1zA8Y9sluuY4sqiaQtOImd9M6tfPa8Pdxi48omNpzlcFfENH53rxF+ug+c5uhFeU8yY1L54B5+ZGtTbBzNnlJBQ/baLuFDWp+sxXQKlj1NunZnrEkRyQDCGRZjlhqRAnw8Y9/HJ/82U9YsgslMq6aUj/5QkVNElmT9Eb2nyaSC6uBNKvCTuI0949MStfcBtcEumCX1zpCWepq8RuNuhDFqzuoamKTVMGNz2cRwnB6mxp14fyckFwPaw+bmdtKy1vaxWH5pCYEvBitNvscl6qcrbS+xmtIavwZ8vVGm9omaXIhaY1fX/Wfh8QY6dLPs4SI2HM0ZpRmOjxbCGEWbpE94HOffREf/OBzjaRGToUmz2lIhN5zFrrSnNw+/LqbbHi8b+GYcdv87RpmrCyzfOC1ITgOIYQtrjkajRBF+P/b+7JgyY4yvS/zbLXX7dt9e1Ev6tYItCJaK9iDBzCEY8LYOMLzYhx4/G47CILx0/iRRxjGA+EAEeGJgLHCEWNiGDvMMkAQBsQAZkCsbRAWalmIbi3dUnffW7eqzpJ+yPxzO+fUrXv7tpZSforS7Tp1TmaeJb/z7wnBhKxvBkBKaiWkJGfb6shQSiU36w+eTzB1SbDZWC1vmj/BmoKFnSMXbF9+UiySjPyHq33fNsfNYtiOCD+aXgeeolJZEnXbmdlPj1hdlXoVDxOTBxiVVdoAbQndjalaTnKUtjrqX91HAVy7tont7QnyfK6IPNbrEtRJJEIcR4iiGFynBVRoW790v8A5w4kTx/Gud78Ta2tjvZ3GR/FuttfUdzQsBr15zH3YyQmwXNsVdPUWdY+iOMMy8XaElSU4IYR0QozHmEwmyPMcPLEeTmbb4Hy1QeppDMZp4Np77L6WH1c9jk7ewDpx+NVM3P5unBRnroWRXI2dcqdzNWpg02/1SsK03TYHxDF5Wu11R+2WKkD4jiJXrTbnAo/s6mqoE1ai33X+W4t+lMfPZlN885vfxNWrLwEMOH36Zgz6Yy1d6NXcPZUviiLkORFJjCRJ1H77r56a6yLwT/7pe1CWuSOJyeBdWu6vOb7NJul2SSuqORhsSW2Rja0u3dX3Uyeht3HOlo6BA27gojOvNOwL1+12MRgMUJZAVTJt86Brah58bzLbHwA+2QC2EbvdUN4kJdX7dPvfGW3H3ij223lxbtcwr45ihjBtFY4mvJzgkSXRWEvOOZNDnpvsx1IFhdDeTtO3PQiznxlry/0iu5G7o/pIm9A3vvEN/ME//wP88R//Bzx5/jym0ymeeOLXuPziZeR5jjyfq2Xv3E9ZlpjP58jzXNc0m063MZlsIc/nZjxif++hEAInT5zUhGuroAxM12KTp68kOlWjrY30zBKBkT6+aZ9mW1172Anz+qRbYN0gVFW1qzUZVpbgbJBnaDgcIk0zFKXQUkAdDVIdFr1g67aC3cGWOOy+29uUDwMaP9eHpjcoOUZ2bpzG1f5bPbSkbtw2b2ejJi3q21wr/6G37Xr0t6oqiEoeI+1iUEvctfShbs+1a9fwwQ9+EB/60Ifw7MXnAAF84399U6vQzzzzNKazCcoql+sTKGKjIo7Ut/0bEd90OsVkaxNVkcMPW9kPdDqdmioqV8JiuuhkjaQWSGMkbbVJbQBqRNVmd3O3uzmuWs1lEWh9kDRNrZfhznhdEByBMYZOp4PRcAwhOKqSyfQiXZmVHiy1OLI8Cs7E996uvu2nSYpZBJJI2nM2m0TJRR3cuNLqbU4AUvekPWm5k6cJb5wNrkpE/XEe6+2+d7SyuEBKdaWW7uqhHzRGri+l2MGZQC08+eST+Ffvfz8e/ea3ENPkEsCF317E5//qf2C2PYcQwIULFyAEUFa5PjciMapv5hOeTXpbW1uYTqeqPNBy1TJ2goAWqsKgAAAgAElEQVTAwfX1mhPB/sRRjDhKnSUlbTSpmZyz2r22Jbilx9c6WVwJjgkZHpKmGXYj4b6uCI7AmMxr7XS6KAvL7kTeVmV3M6Tn2s7kWtuuKmEmEBEdrW16PW9jn9x2bsvYzYBl9veDYXdqW5Z3crU3M1auJON2orcnim9f80lOTpTKkQakB9ZXR83LySVBoe15SstUoi52FHdFJb2cjz32GP71H/4hnvnNM7p98xwwnH/yPPLtGZ45/zQ2r17DZDJpJTEtQVrSpP0RQuiCr6ISuqz49eLY8RNK8nFVVC1hMYYoskwGEa+FhdQDe9V/C9ROQpMK67cLoCZJ6he6UNkwnDlrQiyD1y3BMcaQJAlGoxEYYhQFeWzUJGmzazXa5Wyiqxu0lx2TwfXY00h9Ffrvsu00B7za22on73w3Bnt7W8sorQfZDxI2hOZ6I524KM8WZ4+3HgfXONxFFwIMAud+/nN84AMfUKX069IK2cwqVOj3+/i/v3wcj5/7Ba68dEV6j639ieT88flESFLfZDJBVRYQ162ySs/uieMnnEohXNnZaDV6ivnT19qrKOITFFPBvU1mBv86+bY5fzsAZ1zyd3qeiNw4Op3OroJ8gRX1oi4L2wlBmRCcA4wrlRNEEFAPmW2Xsm9CrWX9L1vSWMYwatrbnxJCu50by5KyVh1qQ6wfL8QigaktVYseftspwZU6TzFt8rfmOm0mLYuxBTa2psEKWQX33/6bf4fpdKpPyQ5dMR8gLwqsjcZYWzuA8+fP44lf/xppkuLQ4cM4ffo0Ng5vYDAY6vO01XwTCO32IUSF7e0Jut0ueJzI1bH28DxQn6duPoPfXvitQyQR42bhlwaPabOjwDgg2vahfpukOXtM/jZbajN2WvlJkgRZ1mlsbxFe1wRHoBtsr/AVJ95FJLXVUcmMUZ2mYp0fbElG7rW757RJgmpDm/3t+omy1mLDSdDDSDDnrLcsbM93QKhfABgikPeq0mqqTWrUJyXdM1JFd3P6AtjenuDf/9Ef4drVKwvHaU/w7e1trK8fRFGUmM1mqKoKFy9cQCUqXHzuAnq9HobDIUajNYyGIwwGg1q4A1VoIRLknGM6naLb5WC7CI1ownjtAMbjNWxvTzwp2ZXAfGmrtg+L4ROgf33sf/tOB38fKGcF7SOldvkCM/tzJEmKNE13fd6B4Dx0Oh0lzW2iqkq55gD8CqUCYBUgyLtoux7qXlia6ELY60js5YVMbbdZFpqcEBUoM+NGwLZJueROjhdDuju9eU07wrpG7tueJopdndbuW++6R05nDPjwhz+MJ88/JQP0PYnEkbZAd0Nuv3r1Kg4fPoznnntOqqNK8ojjGJxxzCZTXMqfx+XLLyCOY0l6gyH6/QH6/QHiONaB0TbRbW9P0On29ALIuz8nOb7jN53A+aeehJ1/uqzkJq1uvJHYmqS3JqkQgENyJAFDhQbR9fe1lzRNMRgMnD6WRSA4C/YNGgyGmM9nspZWzCG0txX6htelK/WbtuHVb0a7Taq+rS7NEChAuNaKfbQ+tm7Mpy/LVWBtg61OG0KzjwWoksvunkt/ZwYKIbBVRBqDJjdLot6xQ+/WCWV3+9KX/wZf+tKXVby3qy7Rv3VGhpqI5CUFgEuXLunJPZ3PMJ1O0elKwzhVU6Fg4KIocPXaVWxubYHz55FlGbrdLnrdLrrdHpIk1X3OZ1N0ul0sVWuuAYwxHDl6DL995mmA121ftE8TyXFGsYrNNrQmCbBtDE3Sn/lu1pOg3+I4RafTrZVNXxaB4FrAGEOaZkiSFNvb2yiKOaKYa/JipPoI24ivJDrGZJWKBgK0IbSEsNju1WQXMyS100039kKflG3pa1HfzTYyGgdrIeK9q8XUjOuhNX99knNeLnvpVjkLptNt/MlHPgpu9SNUm9L8IKVRU9BTkta1zWvKMymN9vP5HGBKzVJSHFOxdnpSg6kQPKZTu6qqxPb2BPP5DFeuXEGSSMLrdDoyli2KtB1qD+I/0izD+sGDuHr1qlO6ykadhFRA7wJvZ9OnrU36Tn/t+Dy5jetT4zxCmibodrt7IjcgENxC0E3p9/vI8xRbW5uygrDvVSXYXkRmFNfrcoK1ollCbIJ5Ngwp7v+Y9tfOZ8YcQS7GzMFYWZsk9Lavmft27MD6dyUr3X7qU5/CpRcuWWNgqLyQG8YYKiFDSBKV9P3Er5/E0WNH0UkzxCrUYl4WWFsbYbQ2BmNWbieRBzVZGXueDsRl0gEAALPZDPP5HJubm0jTFOvr6+j2B3vkcYGNI0cxmW7LxYEc84I8P5/EZCmkZgdCk13NlwyX/chjLJu2EjCGw9Gu4up8BIJbEnEcYzQaYzqdYj5XxTVF5dwQE5PFrI+aGJ6Vzp+N8vla3nNqXOjLZRn4aCK9xX3t/jd/PyntyWuy/AvZVU0BX2o0CwvtFQLAsxefxSOP/FdnKT1bAvfvS9bJ9MR78cpLeMPtb8DaaA0CQMQ5Or0MWZapfNMYohSqzDkRsmyvhFxV3iEPtR8ssqDPbDZDt9uXXuFd3nbGGMajNfQ6feR5DhmY7f4ulx6kF3R7fqkk6rqNksZrb/PvnfzIyipN6q0QQJJk6Pf7u8o7bUIguCVBN4hCSmRAJ9RakdZEAH1nIJWVMW8fQZPHVv2stUZ1nzuPS5Ksrxo2Hdik5lIb9u97IctljnEJfxn12Lw83Hg8eyJVlVgch1KpcBKyXfm7qZfUZz/7GRRF0Tou39EhV3aK8La3/S7uuvt2XSHETFQgjmQWhnQyQMWaCXBwFYKkhiTs8BAl0dEV8wiG7H0RJyV3eTBFmgcPHsSLL76IsiqVyUVdImXGMOYXl7gc9ZOZ56zJrtYmwZntQl0z44igc0+SBL1eTwf17lU9BQLB7Qr2zRsMBrq4ZhRbJXrorabjtBokLOaSHG00NjnZ1rKhT76dzBxTm80t50Xt2Pvs/qFqJy1Sg5q5yI4VNC8Ee3xycthpXWbCqO1kHmgiJwBMqFXcvf2EELjy0hX89V//d922b1P0z4sI7JZbzuDe+85qr6RtSwKoCm4k7Wy09J62cBhjulBBwDTRadTCcibZY5nNpuglg4brvAQYw3A0wmQy0Wlk1K5/veuHLmdr8783BQH7djjqP4piZFnnuuxuNgLB7QF04UkF2d6WD0ucMEATl5pDwlZZZeqR/NEmOd3yQpVv0f12PZq1I63PMrmqi50j7X0v26bbriHWxQQnP3J1KHcbjYHVTZOcwySwC4u/zU6f/6vPYzadyYlWVcqhIJy+6TwZY0rSK/E7t94Czi1DORnIvYkdQaqdsvoGA49IBTVXhqn2dSwcc80a9hhk9RFJfrslAcYYkjRFr9fDbDbTJNcUeNt0LCCJm6RLPwOB9rNX4/JVUJ0DqzyjdkxhlmUYDIbXZXezEQjuOkA3q98fIM9zbG9vy+eWCVPDUGtlAtAl1KlKgtBzsZ0jjES37JgMmhwRXjxfI/EYstlPuJJl8/m0PdeS2Cplt4m1NEeTpyxF65CZXru0lGTo/Mjx5S99WUZ5MSZtYrxeb45gtjGcOX3GDXfgspiDEEJW0FW+UhbTZBcyBYqrXxjAIkuVU5e9qipUjCMS3OmX+q6qCkVeINlD4KscuczFppAXuxgAqcecMU305p1A6ivTqVyu2skcsvOlWrpXFCbj3iOGOE4xGo2v2+5mIxDcPiFJEiXNbWM+nyFWk44xK0uICUgrdlOhy2ZSMeqn2baMJLf8m90nG39S747oFkkC9k8U/EwOB2bZdFpHqkiCVHnXNiSzG6QZqa2dyJGYhRD45S9+gaeeekqXTdcBttaedlViOr/Tp0+j1+tZ/ctCA4PBAGmaoqoqVR9Olk/iiMBjWX+NJD1mV/4FA4skEQshUIkKXJSQJd794p4C+XyGNEmWs2F4EACSNEGn08FsNrNeEqWTQ8tYs5WvLRbOvh92DisdYxcEpfMQQiCKIiRJhrW1tX2T3AiB4PYB9iTudrtI01Su8AW5HqgpgE5qiWUzsuPUaiqrPMqP1t+NXa5dSqsTSlNsHXlrm/ZfBmYcDbYxy2Zox7xRxkeTqiqPk4s2cy4c25XOmmjjZKb+J4R0LgD40he/BMblC8RJk4JUhSvLvknnUlUV7rvvLMAEOCfpDIhiOYFp0sZxjH6/DwaGoqiQ53OUZQFALuLCOJGdOp4yFejEbbuYdc1IQqyqCpyk012AMQA8Qn8wRBRFmE6nToaIvZxj8/F1yY3QRGyMMZ3RYaukABDHia7VGO0xU2MRAsHtM+jtNRwOMZ/PMZ1OEMckOdg2FdT1Uv+NWXNEqM27lObqY3S+ee0vpwpfL1zJbpEE6RwF41gQWm2112HdDThj+O53viPVLSGkBMjUi0j5iDgDBDPrRwDAcDjALb9ziz4PmsRZljrSFkkqjHN0OtLuxRhQVqWu6gvBdDUPxkyFXbo6JD2C15Py83yOjEd7kOKMp7TT7SGKY2xPJoiiyFFXqZ/adbMkuKZ8Vpv44liWZufe+Om3LOs25uXuFwLB3QDQzaXyLpPJBGVVII7rpYH0hNabjRet7oggCcYcu5NU1/QmNlIZwJzUn7ojwpa+dsshtkq3zL4umr3IcryVlvBcb5ypLLJQrFEq/8WLF/HU/3sKXJGEtJsqcmECTAXhVsJNgn/wwQeQpomjogEyZ5LsWr4tVFZBkaSXJhk6WRcAUJYVyjJHWRUy4JjH2gnBwLXqXFQVYiVd0ViKokCaVWC7yTX2Lg/jHGmaIVIxdvP5vCbJuZfOjXdr8pTS9zRNHakNgL4+nHOMxweQZdm+S202AsHdYEgnRF/X+Ioi1jz3tETnPoFMOSKag1l3dkDs7eGxvL26/RuXtN88RuYRsasGkapHk4dzjkoweaGWNBt+//s/kCpew3gYpLlUGv+ZtsslWYKH3vJALYrfXs6ObGpuo3WPqFTdYmRZqkmFSJSILOYRyDlMNjKSEquqQlWWiHZRwrsRjIHHCbo8RpKkmM2mWgVuc7b4YR5kYyPJjAps+sc8//wL+OqXv4LxgTX8i/e9b9cFLHeLQHAvA8gGMR6PsbW1hbIsZAK/CtLVtigtPVnqG4xcpQNBRH1ptt3Y51zYYSzOqBu+783hYDs+dusEEYLCQLzRMOOt0/FxC7yz/rgYAx577If6gtn2NdUBGGeoVJgPkzvhoYce0Iue2BJMt9OpKfq1K2j15W8DjP2KzssJ/GVMS4g28RRFgShW3tS2SyooPMZ+eZLDC8Y0wmUISZzEKCwHSZskR3/pWkhnQVKT2ui6fvELX8C3v/1tDAdDrF0a4X9/73v4h+96V5DgXuuwb2Cv10NVVZhMtpSR2orhIvuy8zCZPEtmqaRA00TZWWVthtuf+9ff3kQgy5KVa0Na/GBTOpdNWhQjxwFmB/1SbBzXaqqorIIITSNmDL98/Jc1o7dtKxIq6wCQ0ttg0MPf/92/59mbIiRxrCt/0LkJphZ2bpCASDqzVVzfWO+rfD6cEuhVpbIk6qYIptuzfzPERlKyEDDufiGlMCrfJNXo0trXnI/tRLCr7dI+nHP86le/wqcf/jSef+45jMZjDPp98IjhxZdear45+4hAcC8z6KEdDIY6EyJJpBPCJSw0cIkJsNRTcIHAsgzJ+QHCzAng27k94UgGzcftH0hqAJhKvhdCZguQNEzeVGFiRhpbmk5nuPDbi45q6Ehw8Cld4O3vfDs6ncwiI+kUiOOUDIL1ETvkJWrE3kSAPuH5di5znlT2vEDEE2XlsLJalBGTMyI4W4I0betYN897xUBSZYQ0zVTbzaq2fT70Pc9z/MVf/Bd88YtfQBpnch2UrIM4SZBmHayNzSLUNwqB4F4hcC5rzFNIiQwt8FhN6kXy3ypJHWpiqUdV/r+B5Kznew/SXNMBlvPD9wZbfS6LndWSBonD6p+kO3l+lUUIFSjTYRGeeeYZL8TESBxEciQ5CwDHjt2Ee970JkeyiiK59N4iRyaNy4S+NJPgTvAlPVIJyYNc+fdNhcHI8uKRkmzdLBY7vo/DlHmXkq+63xXdb6lt2CtutRE1Yww//vGP8ad/+h9x+dJl9PtdjEYDHBiPMRwOcfOpM9jY2EC327uh6ikQCO4VBT2ow+EQeZ5jMtlSnlYmVRxnQhB70ENqV0Btx/WprG0HLWfrWtjDjiqqv6/bP6mlJI34Us3C8QmBF557FnHCtcOiqkpVBr0uYUURw+///j+S64hakhVF5e92kvrqqA1fJfXH4h9P512V1jKDVSnJjXNkWaoCzoUusgnQmrHMeQnq4gUQUgJWziZDqs1ecdsmvLW1hU9+8mF87WtfQydLMRoNMR6PMBwOcOzIcdx2+23SaxtFOH3m9K6u214QCO4VBj2ocoWvMba3t1GWuSyVLoydyRVi7Dcxk7Y5K5jYfwTpmRSCVJX2yW8H39ZVT9vO09bG8o6IvTkf3MlPLwHfhlZVBSot6dZx4cIFpEkmsww4Q1kylGXlqKmSBCq87R+8DYePbNQCWLkK1F0WbfY2+3fbqdB0nL8/4Kqc9m9pmiFNM/R6fRRFrtZdnak9zIvBtEH33ajgftVne397rFEU4dFHv42Pf/wTuHbtGoaDAYbDgSK3Ee64/Q4cPXoMlahwaOMQHnzwIawfXA8S3OsFdKO73S6qSq7wxRjTz1ddxaGHWih7iWExQ2H229/9K/tsH09rvN4C8mLMtsn5amX7sTvFytUngXCITTpqpFQnRGkIgQQ5/3AGXLp0GbIKSIRKSOmE81IZ1JlyBDCcPHkKDz74QKOKyK0AXXusTR8ZwNu8lkHTsU3XoGm7JkPvBidJgm63h36/D845kiRBp9PFYDDE5cuXMJ/PlT3NqM/N17suQdr/5pzj2rVr+LM/+zgeffRRdLIuDqytYTQcYjAc4OSJk7j99jvUeqsRzt5zL267/TYdUnOjEQjuVQR78gyH0gkxm80Qx9K2JNUJKa9JzqEHjvJahXGQCdQChAHPCO307Y6lWYXcWTpzbXJ7U2Ob1EQiWdpM14JyKCl1i2xInHOIslSXyJOAwXD58os6BCWylsLjvATnMvyi3x/ive99LyLurg2qDf2s2RNqOwRkb64k1CTJLUNq8rshSef6UtUapXNGUaLJzT4+yzIcPXoMm5ubuHLlJbj21ObxtMXBcc7x9a9/HZ/85KcwmUyxtnYAo/4Ag1Efg8EAd9/1JmxsHIYQAkeOHsVDDz2I0Xi87/mmixAI7lUKckJkWYZr164BEOARN6k7gKUt2ovQGIbj2Knabbu6ubPq4AcD+7BXECNyEtb3lqOWJEXZtpEihCj1uN2xN6lvwLVrV1BVheWVtFTPqECSZnjvP3sPev2OQ1j2h4h3xw/aSW2RxEZwCYFS1OwEdw7GY8gcZ7lQCxUCaGqXMYbRSC5duLm5qcp95YiixLkH8kVYKdsbHSvP+ZlnfouHH/40fvjDHyJLUhxaX8dg0Ed/0MPxm07itttu03Fxb773LG699dYbkmu6EwLBvYpBD8NoNMJ8Psf29rbMa7WM6OaBsclGBYoSsVg2OqmS0H7LkYlrH6N+bHtc7Qjve+X1u5v+6tt9O5xxNNCCJSZkpCwr4062hre1tYX5vEAcyWKUblmfBO94xztw8OBBbTz3JTPyYC6S3AzanQp0DstM/CbJFjDeUbo8nPOlCkYyxjAcDjEYmHJfZVlqR4RqDZubm7h69QpeeOESXnjhefzd9/8OP/rRjyAEsH5gDZ1OB71uF6PxGu68806sH1hHBYETJ0/igfvvx3A02vHcbhQCwb3KQQ9pmqYmr7XIESdmhS97PxOxTlKCakfHQJm27Xnvc0ATXOKhPhaTXLtdbmc0ER1JErSd7OvMMo5rFbWFURlj2NycYD6fQ8QRykogjitNcr/3e2/HqVOnZBI8msmtLQ/T6kX1Rcvh1cdg/7tJwlsMn/xlLJ9exWuJduzrmGWZzpSwf6sqeV2++93v4ty5cwBksPqDDzyI2WwGIUoMhkNsHDqC9fUDEEKg0+3i3vvuxZkzbr28VwKB4F4joAfW5LVugkeyWq1tY3YMzi3qmS0JNXHA8s/jIueB5epgzJE624+h/o2NybYXukRhkbiKh5OqFENVuWSh+dXqVggTnc+KEmUZo5MBb3/723H69CkrJISDqvba5FarnGGRvbHPqXNZUj31iaDZBsdq/zbXVpZv2mtljiZSjKIIhw4dwvve9z488cQT+OpXv4oXnnsehw4ewnA4RK/TAeNyjYmiKHDmzBnce/996PV6L6utrQ2B4F5jYIyp+lkypCTP54jjCJS6JHcC9IzWNi962FxCtGGko904B9okM5dRjKS4fNuL3/x2vxSvJVQojLGP6TUbvPAZiuki9W40GuI97/nHOLSxDh7ZBMZ0rBv9bUqzssmNMabjZNvscjudcxvZme3W+XPm3P50j5V+F40piiK84Q1vwM0334zHHnsMP/3JTyCEQF6WSDhHf9DHm8+exYkTJ25Y6aO9IBDcaxD0kMu81g42NzdVCWmhWAreRNidN5NUyraJWCep0prkdMxOYuDeVFYzJtcIL4NWKyXlVTojQUtxzpAF4jjRks9999+Lt771IaRpqttvcio0kZtWwZhrqwN2dtQscjAsOnaR2ieE2HeCs5GmKd7ylrfg7NmzePrpp5HnOUajEY4eOYoofvUQGyEQ3GsU9kSk4pqz2RRRpGK41KQDjP3NP144upvcszlSvdpx0hFZmH18ddId914iSFz7kGdjZBEYqxrj4fzzEgCiiOPI0Q28+93vwuHDG6oyLkcUsUY1tO1j34eaSkn/edJbTb1d4mNfP/tTVa7x1F6Kb79ht5llGW699dbW318tCAT3Ggc9VLTC12QyQVVW4LFZmFqFc9pHqWNtjwPFzRkJaS9eTztmzRtpw7a9wzeGk70MtRW3TAVgcyUE3vnOd2Jrck2uWcopXzNCFDU7FEycHF8oqZl+uSLddhJz929uy9/HJxE7iYExhizrvCxE82oksya88lbAgOsGPfhUXLPX66vwCKm6AVAFf+QH+iNgVviieVJXaWUVXVIDoVN02mAbvXdSkd3c0cUE6BrVm36XUhxj5poY1ZLOTZ7sqZMnLXKTifNRxFxS05IQk+sn2MG7DWqqI6GxqJEIl5HS7PNddKwtuUmpNNYe1ACJQHArBs5lqejRaAzGIhR5BQhP9WSAyWOigpccYAx8D3NjsfpKDg76664m5k7i3fddH0ek2/fVRyJoCCDtpE48W1vYh/yNOaS56NNGas2OCTjj9Pe1f2u6zqIS9pJtYEwGhwcYBBV1hdHv940TgjG1ggqIyxTJlYAwpOMGBwNNdrllJIR60r7/LrUltiZ73XJs15SYTuEi0vkAnUSvSyEx4MCBQwBclZOIjgJ4G8NBWlRKR+ITTBWgrGMRYbWFVfg2NW1/E/LlRVcry9KXLcfztYIgwa0ojDQQYTgcIU07KAvpZTSVIAA5NWyVlcjPVlldLKOmmn3tmDxDai5Z2GldO7fXlhspz8YlHtk+kYSREo8dPYZ+r6+JLYpiMOZ6S03FELkodJtH1ZXayP62WKKrX4MFqihQa8to9QIQFdI0ueELuLwWEQhuxUETI8syDIcjVJVAVRrS0dVctaTlx9PR9nqgrlb5dsAyNjazjx1qsnu45ECSGH2nzuT306dP64WII84VyfnkpqqAeNKcr9rq7dxdyd35jZYRbFDp2wjN/51AsX2SvGVy/ctRQPK1hkBwrxOQpDIcDtHp9FAWgKj4AtucOc6zZ+/HaGDscYsfwTYiaNvXfGB9bGlK7itEiZtvvhlJIlPgojjSISL6wyNwFtWcDrL6iGuvq5Pq8iEgvg3Pt8H55EfljchxEiexXggnwEUguNch0jTFcDgCYxGKQtrHqJqtBElypLbaUpUrhVGZ652kOaMW217cpn3K2rbdQO7uOjIIjDFVv016XHuDIdbX18HAEHNDbDq8gzPwmMm6bxYB+YzfRm72b4vQpqb6vwN1Ox1jDHGUot/vB4JrQLBIvs5gTwKZCdHF1uY1yPWfvYBcAUgissqjCzeirh4sDLNvC4xjwCxZKG1whgRdI36z46Gt7LksfSSDfd20LQ5eyXLwQjlPjh8/jq3NTanGeoG7RgpTEhs3aqOjyrLICuqtX2f63iStNUlo9v5+uAr9RsSfpikGg8FSRPp6RJDgXqegyRPHEYajEZI4Q1kAjEotqZQvCam20jZmbffnlBDmswiuZGYmL5UbpzEuox77C56Y2mXmXA1hRIqoJeltbBxBt9dDoqq10MdWSyPONfkZ0omsBV2aA3rb1FT7HrRJb23H2PvEcaxrBgY0I0hwAeDcX+EL4BEsSUpY6V5k3CZjlvyfJfvJzWrDTpJcfR9a0Di3FnTZOeTCbk+dlSIds66FXyBTQKqfh48cxgvPP+9Jjc0hHZq0YEhukT2tjbyaHAgumUmV1zhIjLOEatSlaYZ+fxgktwUIElwAAOOEGI1G6HS6MqQElhOCQVXIcElEilhoDBBeRpJr9qwyVFWJPJ+jaUGVZUHllfwgXpcQODYOHUWSZNqjqj2r1r8Z59K54Ellsp/F6mhbBkQT0cn2pQ2RVsJqsuulqfSKv5oqd7waESS4gBpkcc1YFdcsESdWZQ4dN2dLVmSXowWUAV1VeAlJziY5m+6qqsJ8Pken0wHnHEVROG3vjLpxnqQfzjlK5efodjsYjUaYbm+r5PUKFDvDOJ2DPHPG6V/N1UV0zw0n3EaybSotrXlqMjHk1cmyDgaDYQjqXQLhCgXUICcfR78/QFmW2NzcRBRxL17OlquaHAIGO1ULdr231J5sqyhKTCYTXXG2LOX6pcueB2PQ+bhmm3QcMJSqV4YDB9ZxubqEsixRloUiai7H5JCRHF+TBGeTqU96O+Wl+qQXRS6B0jWi1bHs0k4B7QgqakAjbCliNAggq+sAAAp5SURBVBohihKUhfSoStXTT963MhR05RBDdlUFFYrS3F9bOIhMtSoxnU7VmhQx4pgr4lomQT8C8yqMAND5pTIKhmEwGCJNZapTkqSI48Q4E5wA37hVTW1zLDTluTZ9p3b8ck2EOI6Rpin6/RDQuyyCBBewEDQRe70e0jTFZLIlt3M7TMOOlWMAU7msDdyzk8rKmO02lW0TyZG3tNvtI0liFEUuiXYBx0mHAgcV5awb9GX2LVVimUwmSooz/dml021V179GTQTnk5m9v092NF57QRtCFMVI044qovDKrnPwWkIguIClEccxBgNZXHM6VSt8VRXABViDXU6iLYatmeRk6lhzELBUTyuUZYVOJ0OWZWqh5gJV1Wz3kv1Ib6q7KhdXyfelljX7Pbm6FABQYr5c3V7oMdiSlv29SeJqS9K3yc0mPXJq2BKdJNUIaZphNBrVAn0DFiMQXMCuwJhcgSnLMmxubsoVqbhTe0TtaadFMf2bUN9bBRDhfzHqL0lTeT5HVcnl7brdLtI0Q1EUsgZe86i9gF+SOjkYK2XZIQCJSlgnh0ZZmkBhIjrbHrao+gddqyYPaJOaKlVvMx2pD0l6qTITvPzrir7WEQguYFewJ9hgMEBR5JhMJuARwJiz+mrjMXotHDsFlrnbmqqV2N/p31VVIc9zZFkHnY6spEGqpeMCYSTJ2aqpIZeqKrVIORwOMZlMMJvNHCnOJramEk3++qm03Sc2X4qjxZHtcA/boRBFEcbjNSsmMGA3YGK3yX4BARaIbGiFrySJtIrJGFOERrmhZFOrE5Bsq5TVThSpkNRkS1AEIh2dAB9FSppLFcm5JCrbrrSaK/splb1Nbpclz6UDZTadYXt7Yu3vqqr0l8jKJ7gmO5u9UDQRGxGXfW5yP+nFphzTQG57QyC4gH2DDCm5Bs7hLJsHQBFdDBkrB7gEp+xNKFCVQnlbKx2uYRMdwZasXGN8hMFggCRJUJbuo12WuUdyldpHoCgKaN5lDKISqMoC29tqgWhlA2yqR2fb4ey/vq3NJrosy7TUZjsyiqLASy9dwZ133oUkSfZ6KwIUAsEF7Btoos7nM0ynU8SJjCNzJTk7cNZY7uSfUhFc5TgVJMlZ+bCAI+VR3/a2LMuwsbEBziMtMboEJyU4ateRGC3yFRDIZ9KpYo/HJiVfXQXqyw4S2aUq55X2syXR/3PuHP7mK18BZwzv+5fvx9133x2cCteJYIML2DfQpM2yDtJUOiGEqBDHZOC30r5gS3byH65K2VQpxKi4thRoh3UQCU0mE1y6dAmHDh3C4cNHABjPqAuK35PlkaDscULFxzHGkWYp4iRBns+Rz+e6L78tXzWlPsmJkKZpLcyEc46tzS088sgj+MlPfoy1tQNYWxvhO3/7bdx11127uwEBNQSCC9hX2EZ16YSQal4URQArAaGkOSalKsbMZDcOCNfW1QT7JyIao3ZKkiuKAk8//TQuXryIW2+9FYPBQEuDjJWWk8FaiQtc7yNURwLS85plHaRJgrIsURSl7sc5B7jOBSK2prQqxjgeffRb+PP//OfI5zmGwwE4kzFvk8kk2N32AYHgAm4YSCWL4xiTyRbyXCCOIpnr6deZk/9qJTXfEA+Y2DgANdWRPnEcYzQaI8u6mM1ypR5y5PkcjDFHxeVCukck8UkSrSrlrWAkccVgPEYc2/2Uztjqyw66Y2aM4dKlS/jEJ/4TfvCDH6DTyTAeDjDs99HrdNHtdHD48LFAcPuAQHABNxwyE6KPqqqwtbWFKGIQDCo4mOLi2slN7uMSmHRW1MM3SHVkjKHb7eL48RNYXz+oyWI+n6MoCqRpB0VRoChyAEwRpPKkQoW8CFk4oKoE7HxWUVWghXJkype7FqntWXXPQQbtfuF/fhGffvhhzIscw0Ef4/EY4/EI/eEQJ24+jcMbG+hkaYuaHrAbBIILuOGgSUprQsxmU8xmMyRpDMonFQ3qqfmYtmT4h5n0vuRWVRWiKMLa2gEcPXoUSZI6KiMZ+SeTiZIwE61uSomuRCUEaGEaymOl0BKoIp8yO8Kcn01qPukCUpq9cOEiPvrRP8HPfvpTdLIUa+MR1tbGGA2HOHb0Jrzxttuk9BfFuOfsmwO57QOCFzXgZYcQAqIS2NzaAlBJiY7sXjXvaaVIzXhW7e95nmt7mxBybdDDhw9jOBy3xo8RGRZFgel0W5ZOKsl2Rx/Xa0vBx35yv27fykwzqi/ZGIHPfe5z+MxnPgtRCfS6HYzHQ4zGIwyHI9x5x504snEUeVlg/eA63vrWt+LQxkYguH1AILiAVwQm7SrH9vYEcRKjVCRFAbhtBAcYyY0IjjGG8XgNhw5t7CqlqaoqbG9v67SsopjXAo0BhkoI4xuBCfrV0pqfegtZyeT8+fP4yEc+gscffxy9XheD/hBroxH6vQ6OnzqFO26/E5xzJHGMu+6+G7fdfjuSNAnktk8IBBfwioNsc3meI4oilTzvZhDYcW6AqS4CyJSmAwcOotfr7SlujPqQ5dpLRFGEoig8KbKeOmb/tUEBu4888gj+8i//GwCZv7s2HmE4HGA0HOHuu+/BwYMHAQBHjh7F/Q/cjwMHDgRi22cEggt4xWGTxebmJoqiQJ7niqyEk9EgA3Yl4XQ6GbrdHobDAdyim3sfA6mtVVUhjmOtttrOC8mxVSO5cc5x7tw5fOxjH8PTT/8GWZZh0O+hPxig28lw+vQtuOP2OyAEkGQp3nzPm/HGN75RL00YsL8IBBfwqoGdHVCWpfZ4VpWqvCtM6AlVtN3vPE07U4JUVyEqHfrR5BCZz+a4evUqzp37Ob716Lfwve99D6KqECeyOOWg38dwMMI999yD8XgNAgI33XQcDzz4AIbDIYC9E3PAYgSCCwhogU12eZ4jz3Ntc6PPrx5/HN/9zndRFAV4xPDssxfxm9/8BrPpDEma4MCBAzh58hSOHjkGzjmyTgdnz57FmVvOhAVjXgYEggsI2COI5C5cuIC/ffTbeO7ZZzHo9zEYjXTmAudcVVrJcfLmU7j33nvR7/dDjunLhEBwAQF7hB3zVhQFzv38HM797GfgqjIvEwJclUW665434dSpU04qW8CNRyC4gIB9AE2jrc1NPPnkeVy+fAlRFOHIkSM4eeqUXn0+ENvLi0BwAQH7CNtRQt9DwcpXDoHgAgICVhbB0hkQELCyCAQXEBCwsggEFxAQsLIIBBcQELCyCAQXEBCwsggEFxAQsLIIBBcQELCyCAQXEBCwsggEFxAQsLIIBBcQELCyCAQXEBCwsggEFxAQsLIIBBcQELCyCAQXEBCwsggEFxAQsLIIBBcQELCyCAQXEBCwsggEFxAQsLIIBBcQELCyCAQXEBCwsggEFxAQsLIIBBcQELCyCAQXEBCwsggEFxAQsLIIBBcQELCyCAQXEBCwsggEFxAQsLIIBBcQELCyCAQXEBCwsggEFxAQsLIIBBcQELCyCAQXEBCwsggEFxAQsLIIBBcQELCyCAQXEBCwsggEFxAQsLIIBBcQELCyCAQXEBCwsggEFxAQsLIIBBcQELCyCAQXEBCwsggEFxAQsLIIBBcQELCy+P8CToOmqx8vJAAAAABJRU5ErkJggg==;" vertex="1" parent="1">
          <mxGeometry x="87.43" y="332.55" width="35.12" height="34.89" as="geometry" />
        </mxCell>
        <mxCell id="sDR8SPUoZNO9pGjyw3lz-19" style="edgeStyle=orthogonalEdgeStyle;rounded=0;orthogonalLoop=1;jettySize=auto;html=1;exitX=1;exitY=0.5;exitDx=0;exitDy=0;entryX=0;entryY=0.5;entryDx=0;entryDy=0;" edge="1" parent="1" source="sDR8SPUoZNO9pGjyw3lz-18" target="poQPmo_kxg2JrNtwBbkQ-1">
          <mxGeometry relative="1" as="geometry" />
        </mxCell>
        <mxCell id="sDR8SPUoZNO9pGjyw3lz-20" style="edgeStyle=orthogonalEdgeStyle;rounded=0;orthogonalLoop=1;jettySize=auto;html=1;exitX=1;exitY=0.5;exitDx=0;exitDy=0;entryX=0;entryY=0.5;entryDx=0;entryDy=0;" edge="1" parent="1" source="sDR8SPUoZNO9pGjyw3lz-18" target="poQPmo_kxg2JrNtwBbkQ-20">
          <mxGeometry relative="1" as="geometry" />
        </mxCell>
        <mxCell id="sDR8SPUoZNO9pGjyw3lz-21" style="edgeStyle=orthogonalEdgeStyle;rounded=0;orthogonalLoop=1;jettySize=auto;html=1;exitX=1;exitY=0.5;exitDx=0;exitDy=0;entryX=0;entryY=0.5;entryDx=0;entryDy=0;" edge="1" parent="1" source="sDR8SPUoZNO9pGjyw3lz-18" target="poQPmo_kxg2JrNtwBbkQ-24">
          <mxGeometry relative="1" as="geometry" />
        </mxCell>
        <mxCell id="sDR8SPUoZNO9pGjyw3lz-22" style="edgeStyle=orthogonalEdgeStyle;rounded=0;orthogonalLoop=1;jettySize=auto;html=1;exitX=1;exitY=0.5;exitDx=0;exitDy=0;entryX=0;entryY=0.5;entryDx=0;entryDy=0;" edge="1" parent="1" source="sDR8SPUoZNO9pGjyw3lz-18" target="poQPmo_kxg2JrNtwBbkQ-28">
          <mxGeometry relative="1" as="geometry" />
        </mxCell>
        <mxCell id="sDR8SPUoZNO9pGjyw3lz-18" value="TPS25970&lt;br&gt;eFuse" style="rounded=0;whiteSpace=wrap;html=1;fillColor=#fff2cc;strokeColor=#d6b656;" vertex="1" parent="1">
          <mxGeometry x="180" y="377.25" width="110" height="50" as="geometry" />
        </mxCell>
      </root>
    </mxGraphModel>
  </diagram>
</mxfile>
